<?xml version="1.0" encoding="UTF-8" standalone="no"?>
<!-- Created with Inkscape (http://www.inkscape.org/) -->

<svg
   xmlns:dc="http://purl.org/dc/elements/1.1/"
   xmlns:cc="http://creativecommons.org/ns#"
   xmlns:rdf="http://www.w3.org/1999/02/22-rdf-syntax-ns#"
   xmlns:svg="http://www.w3.org/2000/svg"
   xmlns="http://www.w3.org/2000/svg"
   xmlns:sodipodi="http://sodipodi.sourceforge.net/DTD/sodipodi-0.dtd"
   xmlns:inkscape="http://www.inkscape.org/namespaces/inkscape"
   width="144"
   height="48"
   id="svg2"
   version="1.1"
   inkscape:version="0.48.5 r10040"
   sodipodi:docname="icons.svg">
  <defs
     id="defs4" />
  <sodipodi:namedview
     id="base"
     pagecolor="#ffffff"
     bordercolor="#666666"
     borderopacity="1.0"
     inkscape:pageopacity="0.0"
     inkscape:pageshadow="2"
     inkscape:zoom="4.8945047"
     inkscape:cx="64.926524"
     inkscape:cy="29.713268"
     inkscape:document-units="px"
     inkscape:current-layer="layer1"
     showgrid="true"
     inkscape:window-width="1918"
     inkscape:window-height="1059"
     inkscape:window-x="0"
     inkscape:window-y="19"
     inkscape:window-maximized="0"
     fit-margin-top="0"
     fit-margin-left="0"
     fit-margin-right="0"
     fit-margin-bottom="0">
    <inkscape:grid
       type="xygrid"
       id="grid3058"
       empspacing="8"
       visible="true"
       enabled="true"
       snapvisiblegridlinesonly="true"
       spacingx="2px"
       spacingy="2px"
       originx="0px"
       originy="-208px" />
  </sodipodi:namedview>
  <metadata
     id="metadata7">
    <rdf:RDF>
      <cc:Work
         rdf:about="">
        <dc:format>image/svg+xml</dc:format>
        <dc:type
           rdf:resource="http://purl.org/dc/dcmitype/StillImage" />
        <dc:title />
      </cc:Work>
    </rdf:RDF>
  </metadata>
  <g
     inkscape:label="Layer 1"
     inkscape:groupmode="layer"
     id="layer1"
     transform="translate(0,-796.36218)">
    <g
       id="g3535"
       transform="matrix(0.03125,0,0,0.03125,0,812.36218)">
      <path
         id="path3501"
         d="M 0,0 H 512 V 512 H 0 z"
         inkscape:connector-curvature="0" />
      <g
         id="g3503"
         transform="matrix(18.68858,0,0,18.68858,-9758.785,-16570.13)">
        <path
           id="path3505"
           d="m 535.1414,907.6182 -1.4963,2.5916 c 2.7227,1.572 5.2595,2.6731 7.9834,2.8469 -1.5276,-2.2948 -3.747,-3.8565 -6.4871,-5.4385 z"
           inkscape:connector-curvature="0"
           style="fill:#ffffff;fill-rule:evenodd" />
        <path
           id="path3507"
           transform="matrix(-0.5,0.86603,-0.86603,-0.5,0,0)"
           d="m 517.3518,-917.1353 h 5.1662 v 10.5735 h -5.1662 z"
           inkscape:connector-curvature="0"
           style="fill:#ffffff;stroke:#000000" />
        <path
           id="path3509"
           d="m 524.8289,902.7061 10.0349,5.7632"
           inkscape:connector-curvature="0"
           style="fill:none;stroke:#000000" />
        <path
           id="path3511"
           d="m 526.738,901.1315 -2.9272,5.0701"
           inkscape:connector-curvature="0"
           style="fill:none;stroke:#ffffff" />
        <path
           id="path3513"
           d="m 541.1437,891.8249 -0.7745,2.8906 c 3.0368,0.8137 5.7721,1.2207 8.4482,0.6836 -2.0695,-1.8212 -4.6175,-2.7553 -7.6736,-3.5742 z"
           inkscape:connector-curvature="0"
           style="fill:#ffffff;fill-rule:evenodd" />
        <path
           id="path3515"
           transform="matrix(-0.25882,0.96593,-0.96593,-0.25882,0,0)"
           d="m 720.2805,-753.4061 h 5.1662 v 10.5735 h -5.1662 z"
           inkscape:connector-curvature="0"
           style="fill:#ffffff;stroke:#000000" />
        <path
           id="path3517"
           d="M 529.248,889.4304 540.4326,892.4"
           inkscape:connector-curvature="0"
           style="fill:none;stroke:#000000" />
        <path
           id="path3519"
           d="m 538.7072,899.9243 -1.1439,2.7653 c 2.9052,1.2017 5.5644,1.961 8.2875,1.7764 -1.8151,-2.0749 -4.22,-3.3324 -7.1437,-4.5418 z"
           inkscape:connector-curvature="0"
           style="fill:#ffffff;fill-rule:evenodd" />
        <path
           id="path3521"
           transform="matrix(-0.38223,0.92407,-0.92407,-0.38223,0,0)"
           d="m 624.582,-841.6603 h 5.1662 v 10.5735 h -5.1662 z"
           inkscape:connector-curvature="0"
           style="fill:#ffffff;stroke:#000000" />
        <path
           id="path3523"
           d="m 527.7029,896.2185 10.695,4.4194"
           inkscape:connector-curvature="0"
           style="fill:none;stroke:#000000" />
        <path
           id="path3525"
           d="m 529.5264,894.5944 -2.2377,5.4099"
           inkscape:connector-curvature="0"
           style="fill:none;stroke:#ffffff" />
        <path
           id="path3527"
           d="m 531.3477,887.7342 -1.5152,5.6549"
           inkscape:connector-curvature="0"
           style="fill:none;stroke:#ffffff" />
      </g>
    </g>
    <g
       transform="matrix(1.1680363,0,0,1.1673693,-767.23558,-136.25413)"
       id="g3780">
      <g
         id="g3846"
         transform="matrix(0.49999961,0,0,0.49999654,372.99803,569.63589)">
        <path
           id="path3778"
           d="M 31.999975,572.36218 H 64 V 604.3439 H 31.999975 z"
           inkscape:connector-curvature="0"
           transform="matrix(0.85613778,0,0,0.85662695,567.72315,-4.3486963)" />
        <path
           id="path3782"
           transform="matrix(-1.11852,0,0,1.11852,897.13831,384.24882)"
           d="m 269.5625,110.7684 c 0,2.33 -1.8888,4.2188 -4.2188,4.2188 -2.33,0 -4.2188,-1.8888 -4.2188,-4.2188 0,-2.33 1.8888,-4.2188 4.2188,-4.2188 2.33,0 4.2188,1.8888 4.2188,4.2188 z"
           inkscape:connector-curvature="0"
           style="fill:#ffffff;stroke:#000000;stroke-width:0.89399999" />
        <path
           id="path3784"
           d="m 621.6902,486.5957 v 2.7188 l -21.5625,19.375 -0.0312,0.1875 -0.0312,-0.1562 -0.4062,0.3438 0.2812,-0.0937 0.1562,-0.0937 21.5938,-14.7188 v 3.5 l -21.2188,11.1562 21.2188,-6.5625 v 2.7188 l -21.6562,4.0938 -0.4062,0.1875 22.0625,-1.1875 v 2.6562 l -22.5,-1.25 -0.0312,0.0312 15.2812,2.9062 h -6.0938 l -9.2188,-2.875 -1.0625,0.9688 0.9062,-1 v -0.0312 h -0.0625 l -0.0312,-0.0312 h -0.0312 l -1.4688,-0.0625 1.7812,-0.0937 0.0312,-0.0625 h 0.0312 l 0.8438,-0.9375 -0.0312,-0.3125 -0.7812,1.125 0.7812,-1.4375 -1.1562,-21.0625 h 2.4062 l -1.0938,20.7188 0.0625,-0.0937 3.875,-20.625 h 2.5625 l -6.3438,20.4062 10.7188,-20.4062 h 3.5625 l -14.4688,21.1875 -0.0312,0.4062 19.4062,-21.5938 h 2.1562 z m -25.6875,0 3.9062,20.6875 -3.9062,-12.5938 v -8.0938 z m 3.75,22.5312 -0.1875,0.0312 -0.125,0.125 0.0937,-0.0312 0.2188,-0.125 z"
           inkscape:connector-curvature="0"
           style="fill:#ffffff" />
        <path
           id="path3786"
           d="m 596.6477,505.0356 5.0559,2.4946 -1.5745,1.7349 4.8729,3.5624 -2.9923,-3.9501 1.7234,-2.1422 -5.4673,-2.8917"
           inkscape:connector-curvature="0"
           style="fill-rule:evenodd" />
      </g>
    </g>
    <g
       id="g3953"
       transform="matrix(0.03125,0,0,0.03125,16,796.36218)">
      <path
         id="path3939"
         d="M 0,0 H 512 V 512 H 0 z"
         inkscape:connector-curvature="0" />
      <g
         id="g3941"
         transform="matrix(15,0,0,15,16,-1123.9999)">
        <use
           id="use3943"
           transform="translate(36,72)"
           height="1052.3621"
           width="744.09399"
           x="0"
           y="0" />
        <path
           id="path3945"
           d="m 16,84 c 4,5 -3,3 -11,3 3.4195,1.1398 6.0146,2.0114 7.875,2.75 C 9.8924,90.7102 5.85,91.55 0,92 5.85,92.45 9.8924,93.2898 12.875,94.25 11.0146,94.9886 8.4195,95.8602 5,97 c 8,0 15,-2 11,3 1.3106,-0.6553 2.8226,-1.3056 4.2812,-2.0312 1.688,1.1644 2.9715,2.0312 5.3125,2.0312 3.2,0 6.4062,-3.2 6.4062,-8 0,-4.8 -3.2063,-8 -6.4062,-8 -2.3567,0 -3.6387,0.8549 -5.3438,2.0312 C 18.799,85.3106 17.3029,84.6515 15.9999,84 z m 8.8125,3.1875 c 2.2091,0 4,2.1615 4,4.8125 0,2.651 -1.7909,4.8125 -4,4.8125 -0.6041,0 -1.174,-0.181 -1.6875,-0.4688 C 24.8005,95.1784 26,93.7828 26,91.9999 c 0,-1.7828 -1.1995,-3.1785 -2.875,-4.3438 0.5135,-0.2877 1.0834,-0.4688 1.6875,-0.4688 z"
           inkscape:connector-curvature="0"
           style="fill:#ffffff" />
      </g>
    </g>
    <g
       id="g4112"
       transform="matrix(0.03125,0,0,0.03125,96,796.36218)">
      <path
         id="path4096"
         d="M 0,0 H 512 V 512 H 0 z"
         inkscape:connector-curvature="0" />
      <g
         id="g4098"
         transform="matrix(18.68858,0,0,18.68858,-7718.3732,-699.84727)">
        <path
           id="path4100"
           d="m 415.8444,38.8271 c 1.6347,1.393 2.8253,5.0913 2.8253,9.4433 0,2.3736 -0.3699,4.5289 -0.9527,6.2428 1.6659,3.8221 4.5979,6.5498 9.6256,9.3799 4.8991,-2.6084 7.7065,-5.1674 9.2971,-8.968 -0.6689,-1.769 -1.0841,-4.0914 -1.0841,-6.6547 0,-4.352 1.1906,-8.0503 2.8253,-9.4433 -7.5122,1.6705 -15.0243,1.9544 -22.5364,0 z"
           inkscape:connector-curvature="0"
           style="fill:#ffffff;fill-rule:evenodd" />
        <path
           id="path4102"
           d="m 427.6055,38.1047 -3.4189,10.2134 2.2312,1.0161 -2.2186,9.0735 6.1575,-10.1317 -2.487,-1.1042 4.6973,-8.9977 -4.9615,-0.0695 z"
           inkscape:connector-curvature="0"
           style="fill-rule:evenodd" />
        <path
           id="path4104"
           d="m 424.7574,47.0076 -3.363,2.8448 3.9045,-1.0911"
           inkscape:connector-curvature="0"
           style="fill-rule:evenodd" />
      </g>
    </g>
    <g
       id="g4430"
       transform="matrix(0.03125,0,0,0.03125,112,796.36218)">
      <path
         id="path4402"
         d="M 0,0 H 512 V 512 H 0 z"
         inkscape:connector-curvature="0" />
      <g
         id="g4404"
         transform="matrix(15,0,0,15,-4844,-2204)">
        <use
           id="use4406"
           transform="translate(360,144)"
           height="1052.3621"
           width="744.09399"
           x="0"
           y="0" />
      </g>
      <g
         id="g4408"
         transform="matrix(15,0,0,15,-8264,-13489.433)"
         style="fill:#ffffff">
        <path
           id="path4410"
           transform="translate(40,452.36218)"
           d="m 532,464 a 4,4 0 1 1 -8,0 4,4 0 1 1 8,0 z"
           inkscape:connector-curvature="0" />
        <path
           id="path4412"
           d="m 567,906.362 h 2 a 1,1 0 0 1 1,1 v 2 a 1,1 0 0 1 -1,1 h -2 a 1,1 0 0 1 -1,-1 v -2 a 1,1 0 0 1 1,-1"
           inkscape:connector-curvature="0" />
        <path
           id="path4414"
           d="m 575,914.362 h 2 a 1,1 0 0 1 1,1 v 2 a 1,1 0 0 1 -1,1 h -2 a 1,1 0 0 1 -1,-1 v -2 a 1,1 0 0 1 1,-1"
           inkscape:connector-curvature="0" />
        <path
           id="path4416"
           d="m 567,922.362 h 2 a 1,1 0 0 1 1,1 v 2 a 1,1 0 0 1 -1,1 h -2 a 1,1 0 0 1 -1,-1 v -2 a 1,1 0 0 1 1,-1"
           inkscape:connector-curvature="0" />
        <path
           id="path4418"
           d="m 559,914.362 h 2 a 1,1 0 0 1 1,1 v 2 a 1,1 0 0 1 -1,1 h -2 a 1,1 0 0 1 -1,-1 v -2 a 1,1 0 0 1 1,-1"
           inkscape:connector-curvature="0" />
      </g>
      <g
         id="g4420"
         transform="matrix(15,0,0,15,-4844,-2204)">
        <path
           id="path4422"
           d="m 340,148 c -8.8366,0 -16,7.1634 -16,16 0,8.8366 7.1634,16 16,16 8.8366,0 16,-7.1634 16,-16 0,-8.8366 -7.1634,-16 -16,-16 z m 0,4 c 6.6274,0 12,5.3726 12,12 0,6.6274 -5.3726,12 -12,12 -6.6274,0 -12,-5.3726 -12,-12 0,-6.6274 5.3726,-12 12,-12 z"
           inkscape:connector-curvature="0"
           style="fill:#ffffff" />
      </g>
    </g>
    <g
       id="g4568"
       transform="matrix(0.03125,0,0,0.03125,0,828.36218)">
      <path
         id="path4542"
         d="M 0,0 H 512 V 512 H 0 z"
         inkscape:connector-curvature="0" />
      <g
         id="g4544"
         transform="matrix(18.68858,0,0,18.68858,5785.3495,-6703.5959)">
        <path
           id="path4546"
           d="m -295.8562,361.9053 c -2.8817,0 -5.5316,0.9159 -7.6029,2.4961 0.3897,0.1065 0.7451,0.2662 1.0409,0.4992 1.3895,1.0948 0.9615,3.2361 -0.9956,4.7782 -1.285,1.0125 -2.9045,1.5064 -4.254,1.4263 -0.1267,0.6527 -0.181,1.3102 -0.181,1.9969 0,4.9534 3.4177,9.1755 8.1912,10.6617 -1.4471,-1.1257 -1.4181,-3.7856 -0.362,-5.1111 -5.3842,-4.3015 -1.916,-8.9909 4.1635,-9.9009 6.5668,0.358 9.0664,5.757 4.1635,9.9009 1.3441,1.3141 0.7819,3.9506 -0.362,5.1111 4.7735,-1.4862 8.2365,-5.7083 8.2365,-10.6617 0,-0.6866 -0.0996,-1.3442 -0.2263,-1.9969 -1.3496,0.0801 -2.969,-0.4138 -4.254,-1.4263 -1.9571,-1.5421 -2.3851,-3.6833 -0.9956,-4.7782 0.2957,-0.233 0.6511,-0.3927 1.0409,-0.4992 -2.0711,-1.5795 -4.7219,-2.496 -7.6029,-2.4961 z"
           inkscape:connector-curvature="0"
           style="fill:#ffffff" />
        <path
           id="path4548"
           transform="matrix(1.01748,0,0,0.76,-750.25148,91.13993)"
           d="m 450,369.3309 c 0,2.5371 -1.4341,4.5938 -3.2031,4.5938 -1.769,0 -3.2031,-2.0567 -3.2031,-4.5938 0,-2.5371 1.4341,-4.5938 3.2031,-4.5938 1.769,0 3.2031,2.0567 3.2031,4.5938 z"
           inkscape:connector-curvature="0"
           style="fill:#ffffff" />
        <path
           id="path4550"
           transform="matrix(0.48077,0,0,0.6266,-510.45155,141.30344)"
           d="m 450,369.3309 c 0,2.5371 -1.4341,4.5938 -3.2031,4.5938 -1.769,0 -3.2031,-2.0567 -3.2031,-4.5938 0,-2.5371 1.4341,-4.5938 3.2031,-4.5938 1.769,0 3.2031,2.0567 3.2031,4.5938 z"
           inkscape:connector-curvature="0" />
        <path
           id="path4552"
           d="m -287.8221,363.6428 c 0,3.2598 -3.5892,5.9054 -8.0115,5.9054 -4.4223,0 -8.0115,-2.6456 -8.0115,-5.9054 0,-2.5906 16.023,-1.8496 16.023,0 z"
           inkscape:connector-curvature="0"
           style="stroke:#000000;stroke-width:1.07200003" />
        <path
           id="path4554"
           transform="matrix(-0.56483,-0.49232,-0.77209,0.42191,229.29664,410.36719)"
           d="m 412.6562,375.3153 c 0,1.0614 -0.7625,1.9219 -1.7031,1.9219 -0.9406,0 -1.7031,-0.8605 -1.7031,-1.9219 0,-1.0614 0.7625,-1.9219 1.7031,-1.9219 0.9406,0 1.7031,0.8605 1.7031,1.9219 z"
           inkscape:connector-curvature="0"
           style="fill:#ffffff" />
        <path
           id="path4556"
           transform="matrix(-0.50978,-0.49579,-0.63903,0.60535,159.21882,339.61568)"
           d="m 412.6562,375.3153 c 0,1.0614 -0.7625,1.9219 -1.7031,1.9219 -0.9406,0 -1.7031,-0.8605 -1.7031,-1.9219 0,-1.0614 0.7625,-1.9219 1.7031,-1.9219 0.9406,0 1.7031,0.8605 1.7031,1.9219 z"
           inkscape:connector-curvature="0"
           style="fill:#ffffff" />
        <path
           id="path4558"
           transform="matrix(0.56483,-0.49232,0.77209,0.42191,-820.96385,410.36719)"
           d="m 412.6562,375.3153 c 0,1.0614 -0.7625,1.9219 -1.7031,1.9219 -0.9406,0 -1.7031,-0.8605 -1.7031,-1.9219 0,-1.0614 0.7625,-1.9219 1.7031,-1.9219 0.9406,0 1.7031,0.8605 1.7031,1.9219 z"
           inkscape:connector-curvature="0"
           style="fill:#ffffff" />
        <path
           id="path4560"
           transform="matrix(0.50978,-0.49579,0.63903,0.60535,-750.88604,339.61568)"
           d="m 412.6562,375.3153 c 0,1.0614 -0.7625,1.9219 -1.7031,1.9219 -0.9406,0 -1.7031,-0.8605 -1.7031,-1.9219 0,-1.0614 0.7625,-1.9219 1.7031,-1.9219 0.9406,0 1.7031,0.8605 1.7031,1.9219 z"
           inkscape:connector-curvature="0"
           style="fill:#ffffff" />
      </g>
    </g>
    <g
       id="g4917"
       transform="matrix(0.03117379,0,0,0.03097908,32,812.36218)">
      <path
         id="path4885"
         d="M 0,0 H 512 V 512 H 0 z"
         inkscape:connector-curvature="0" />
      <g
         id="g4887"
         transform="matrix(18.68858,0,0,18.68858,-908.73432,-34037.112)">
        <path
           id="path4889"
           d="m 66.2721,1836.0347 c -1.9747,-1.334 -4.339,-2.1127 -6.9014,-2.1126 l -8e-6,4.2957 c 2.5771,0 4.9201,-0.8349 6.9015,-2.1831 z"
           inkscape:connector-curvature="0"
           style="fill:#ffffff" />
        <path
           id="path4891"
           transform="matrix(0,1,-1,0,0,0)"
           d="m 1833.951,-58.4618 h 4.238 v 7.8767 h -4.238 z"
           inkscape:connector-curvature="0"
           style="fill:#ffffff" />
        <path
           id="path4893"
           d="m 58.7189,1833.6852 -7.4e-5,4.7697"
           inkscape:connector-curvature="0"
           style="fill:none;stroke:#000000" />
        <path
           id="path4895"
           d="m 52.28,1833.6851 -7.4e-5,4.7698"
           inkscape:connector-curvature="0"
           style="fill:none;stroke:#000000" />
        <path
           id="path4897"
           d="m 49.5178,1842.6241 c 7.2056,0 13.757,-2.5477 19.2969,-6.6618 -5.5215,-4.0707 -12.1322,-6.4467 -19.2968,-6.4465"
           inkscape:connector-curvature="0"
           style="fill:none;stroke:#ffffff" />
        <path
           id="path4899"
           d="m 61.1508,1848.2885 c 4.8277,-3.6259 8.6652,-7.768 11.0315,-12.3766 -2.7976,-5.4485 -7.7405,-10.1865 -13.9813,-14.1594"
           inkscape:connector-curvature="0"
           style="fill:none;stroke:#ffffff" />
        <path
           id="path4901"
           d="m 71.6451,1848.1519 c 4.3116,-8.2014 3.6289,-18.962 -1.1315,-26.4994"
           inkscape:connector-curvature="0"
           style="fill:none;stroke:#ffffff" />
        <path
           id="path4903"
           d="m 68.9826,1848.1519 c 8.2173,-8.2014 6.9162,-18.962 -2.1565,-26.4994"
           inkscape:connector-curvature="0"
           style="fill:none;stroke:#ffffff" />
        <path
           id="path4905"
           d="m 55.8298,1848.2885 c 7.1153,-3.6259 12.7712,-7.768 16.2588,-12.3766 -4.1232,-5.4485 -11.4083,-10.1865 -20.6063,-14.1594"
           inkscape:connector-curvature="0"
           style="fill:none;stroke:#ffffff" />
        <path
           id="path4907"
           d="m 49.5178,1844.9925 c 7.3058,0 13.9482,-3.4684 19.5651,-9.0691 -5.5982,-5.5417 -12.3008,-8.7763 -19.565,-8.776"
           inkscape:connector-curvature="0"
           style="fill:none;stroke:#ffffff" />
        <path
           id="path4909"
           d="m 49.1571,1821.783 h 26.4314 v 26.4314 H 49.1571 z"
           inkscape:connector-curvature="0"
           style="fill:none;stroke:#000000" />
      </g>
    </g>
    <g
       id="g5053"
       transform="matrix(0.03125,0,0,0.03125,48,812.36218)">
      <path
         id="path5029"
         d="M 0,0 H 512 V 512 H 0 z"
         inkscape:connector-curvature="0" />
      <g
         id="g5031"
         transform="matrix(18.68858,0,0,18.68858,-9081.305,-40151.388)">
        <g
           id="g5033"
           transform="translate(72.9145,5.3077)">
          <path
             id="path5035"
             d="m 438.577,2164.8555 c 0,2.5886 -5.2097,4.6871 -11.6362,4.6871 -6.4265,0 -11.6362,-2.0985 -11.6362,-4.6871 0,-2.5886 5.2097,-4.6872 11.6362,-4.6872 6.4265,0 11.6362,2.0985 11.6362,4.6872 z"
             inkscape:connector-curvature="0"
             style="fill:#ffffff" />
          <path
             id="path5037"
             transform="matrix(0.79688,0,0,0.59302,86.72236,878.42974)"
             d="m 438.577,2164.8555 c 0,2.5886 -5.2097,4.6871 -11.6362,4.6871 -6.4265,0 -11.6362,-2.0985 -11.6362,-4.6871 0,-2.5886 5.2097,-6.8929 11.6362,-6.8929 6.4265,0 11.6362,4.3042 11.6362,6.8929 z"
             inkscape:connector-curvature="0"
             style="fill:#ffffff;stroke:#000000;stroke-width:1.45469999" />
          <path
             id="path5039"
             transform="matrix(0.4564,0,0,0.4564,232.08703,1173.2419)"
             d="m 438.577,2164.8555 c 0,2.5886 -5.2097,4.6871 -11.6362,4.6871 -6.4265,0 -11.6362,-2.0985 -11.6362,-4.6871 0,-2.5886 5.2097,-4.6872 11.6362,-4.6872 6.4265,0 11.6362,2.0985 11.6362,4.6872 z"
             inkscape:connector-curvature="0"
             style="stroke:#ffffff;stroke-width:2.19109988" />
          <path
             id="path5041"
             transform="matrix(0.36628,0,0,0.36628,270.56136,1369.2708)"
             d="m 438.577,2164.8555 c 0,2.5886 -5.2097,4.6871 -11.6362,4.6871 -6.4265,0 -11.6362,-2.0985 -11.6362,-4.6871 0,-2.5886 5.2097,-4.6872 11.6362,-4.6872 6.4265,0 11.6362,2.0985 11.6362,4.6872 z"
             inkscape:connector-curvature="0"
             style="fill:#ffffff" />
        </g>
        <path
           id="path5043"
           d="m 497.8968,2149.822 1.1354,8.9233 h 1.6464 l 1.1354,-8.9233 z"
           inkscape:connector-curvature="0"
           style="fill:#ffffff" />
        <path
           id="path5045"
           d="m 498.9385,2159.6714 h 1.8338 v 1.8338 h -1.8338 z"
           inkscape:connector-curvature="0"
           style="fill:#ffffff" />
      </g>
    </g>
    <g
       id="g5173"
       transform="matrix(0.03125,0,0,0.03125,64,812.36218)">
      <path
         id="path5155"
         d="M 0,0 H 512 V 512 H 0 z"
         inkscape:connector-curvature="0" />
      <g
         id="g5157"
         transform="matrix(14.99999,0,0,14.99999,16,-4489.4306)">
        <use
           id="use5159"
           transform="translate(36,296.36218)"
           height="1052.3621"
           width="744.09399"
           x="0"
           y="0" />
      </g>
      <g
         id="g5161"
         transform="matrix(6.66666,0,0,6.66666,-2310.666,-2916.4138)"
         style="fill:#ffffff">
        <path
           id="path5163"
           d="m 367,444.3622 0,45 c 0,4.5 0,4.5 4.5,4.5 h 27 c 4.5,0 4.5,0 4.5,-4.5 v -45 c 0,-4.5 0,-4.5 -4.5,-4.5 h -27 c -4.5,0 -4.5,0 -4.5,4.5 z m 9,4.5 18,0 0,31.5 -18,0 z"
           inkscape:connector-curvature="0" />
        <path
           id="path5165"
           d="m 369,500.612 h 32 a 2,2 0 0 1 2,2 v 7.25 a 2,2 0 0 1 -2,2 h -32 a 2,2 0 0 1 -2,-2 v -7.25 a 2,2 0 0 1 2,-2"
           inkscape:connector-curvature="0" />
      </g>
    </g>
    <g
       id="g5290"
       transform="matrix(0.03125,0,0,0.03125,48,796.36218)">
      <path
         id="path5272"
         d="M 0,0 H 512 V 512 H 0 z"
         inkscape:connector-curvature="0" />
      <g
         id="g5274"
         transform="matrix(14.99999,0,0,14.99999,-1603.998,-3823.9962)">
        <use
           id="use5276"
           transform="translate(144,252)"
           height="1052.3621"
           width="744.09399"
           x="0"
           y="0" />
      </g>
      <g
         id="g5278"
         transform="matrix(3.75,0,0,3.75,-1783.9978,-2730.3554)"
         style="fill:#ffffff">
        <path
           id="path5280"
           transform="matrix(0,1,-1,0,0,0)"
           d="m 740.362,-568 h 112 a 8,8 0 0 1 8,8 v 32 a 8,8 0 0 1 -8,8 h -112 a 8,8 0 0 1 -8,-8 v -32 a 8,8 0 0 1 8,-8"
           inkscape:connector-curvature="0" />
        <path
           id="path5282"
           transform="scale(-1,-1)"
           d="m -600,-820.362 h 112 a 8,8 0 0 1 8,8 v 32 a 8,8 0 0 1 -8,8 h -112 a 8,8 0 0 1 -8,-8 v -32 a 8,8 0 0 1 8,-8"
           inkscape:connector-curvature="0" />
      </g>
    </g>
    <g
       id="g5439"
       transform="matrix(0.03125,0,0,0.03119574,112,812.3623)">
      <path
         id="path5405"
         d="M 0,0 H 512 V 512 H 0 z"
         inkscape:connector-curvature="0" />
      <g
         id="g5407"
         transform="matrix(18.68858,0,0,18.68858,-2955.7995,-41513.91)">
        <path
           id="path5409"
           transform="matrix(1.15914,0,0,1.15849,-23.30688,-352.79739)"
           d="m 178.9184,2230.8628 c 0,1.3873 -0.6651,2.512 -1.4856,2.512 -0.8205,0 -1.4856,-1.1247 -1.4856,-2.512 0,-1.3873 0.6651,-2.512 1.4856,-2.512 0.8205,0 1.4856,1.1247 1.4856,2.512 z"
           inkscape:connector-curvature="0"
           style="fill:none;stroke:#ffffff;stroke-width:0.86299998" />
        <path
           id="path5411"
           d="m 172.8564,2223.0998 10.1724,5.8698"
           inkscape:connector-curvature="0"
           style="fill:none;stroke:#ffffff" />
        <path
           id="path5413"
           transform="matrix(0.86615,0.49979,-0.50021,0.8659,0,0)"
           d="m 1263.8215,1836.74 h 4.1615 v 14.7744 h -4.1615 z"
           inkscape:connector-curvature="0"
           style="fill:#ffffff;stroke:#000000" />
        <path
           id="path5415"
           transform="matrix(0.86615,0.49979,-0.50021,0.8659,0,0)"
           d="m 1260.7251,1845.8356 h 10.1819 v 16.281 h -10.1819 z"
           inkscape:connector-curvature="0"
           style="fill:#ffffff;stroke:#000000" />
        <path
           id="path5417"
           d="m 175.9795,2225.9671 c -2.9871,-1.7236 -6.5016,-1.2332 -7.8463,1.0947 l -1.7961,3.1091 10.8208,6.244 1.7961,-3.1091 c 1.3448,-2.328 0.0125,-5.6151 -2.9745,-7.3387 z"
           inkscape:connector-curvature="0"
           style="fill:#ffffff;stroke:#000000" />
        <path
           id="path5419"
           d="m 163.6759,2247.2656 c -2.9871,-1.7236 -4.3194,-5.0106 -2.9745,-7.3387 l 1.7961,-3.1091 10.8209,6.2439 -1.7961,3.1092 c -1.3449,2.328 -4.8592,2.8183 -7.8463,1.0947 z"
           inkscape:connector-curvature="0"
           style="fill:#ffffff;stroke:#000000" />
        <path
           id="path5421"
           d="m 167.9394,2231.4736 1.6394,-2.8679"
           inkscape:connector-curvature="0"
           style="fill:none;stroke:#000000" />
        <path
           id="path5423"
           d="m 175.3156,2235.7752 1.6394,-2.8681"
           inkscape:connector-curvature="0"
           style="fill:none;stroke:#000000" />
        <path
           id="path5425"
           d="m 171.4103,2233.4975 1.6393,-2.8678"
           inkscape:connector-curvature="0"
           style="fill:none;stroke:#000000" />
        <path
           id="path5427"
           d="m 162.5533,2240.6031 1.6394,-2.8679"
           inkscape:connector-curvature="0"
           style="fill:none;stroke:#000000" />
        <path
           id="path5429"
           d="m 169.9296,2244.9047 1.6394,-2.8681"
           inkscape:connector-curvature="0"
           style="fill:none;stroke:#000000" />
        <path
           id="path5431"
           d="m 166.0242,2242.627 1.6393,-2.8678"
           inkscape:connector-curvature="0"
           style="fill:none;stroke:#000000" />
      </g>
    </g>
    <g
       id="g5610"
       transform="matrix(0.03125,0,0,0.03125,80,812.36218)">
      <path
         id="path5596"
         d="M 0,0 H 512 V 512 H 0 z"
         inkscape:connector-curvature="0" />
      <g
         id="g5598"
         transform="matrix(15,0,0,15,16,-3284)">
        <use
           id="use5600"
           transform="translate(36,216)"
           height="1052.3621"
           width="744.09399"
           x="0"
           y="0" />
        <path
           id="path5602"
           d="m 16,220 c -6.4,0 -8,3.2125 -8,4.8125 v 4.7812 c 0,0.8864 0.7073,1.5938 1.5938,1.5938 h 1.5938 v 9.625 H 9.5938 C 8.7074,240.8125 8,241.5198 8,242.4063 v 4.7812 c 0,1.6 1.6,4.8125 8,4.8125 6.4,0 8,-3.2125 8,-4.8125 v -4.7812 c 0,-0.8864 -0.7074,-1.5938 -1.5938,-1.5938 h -1.5938 v -9.625 h 1.5938 c 0.8864,0 1.5938,-0.7073 1.5938,-1.5938 v -4.7812 C 24,223.2125 22.4,220 16,220 z m -1.5938,11.1875 3.1875,0 0,9.625 -3.1875,0 0,-9.625 z"
           inkscape:connector-curvature="0"
           style="fill:#ffffff" />
      </g>
    </g>
    <g
       id="g6133"
       transform="matrix(0.03125,0,0,0.03125,128,796.36218)">
      <path
         id="path6099"
         d="M 0,0 H 512 V 512 H 0 z"
         inkscape:connector-curvature="0" />
      <g
         id="g6101"
         style="fill:#ffffff">
        <g
           id="g6103"
           transform="matrix(18.68858,0,0,18.68858,-8403.34,-45609.51)">
          <path
             id="path6105"
             d="m 452.02,2446.15 2.134,-1.487 -3.268,-3.085 5.984,2.632 -1.423,1.488 18.267,14.714 -2.745,1.913 5.073,4.741 -8.567,-4.159 1.83,-1.913 z"
             inkscape:connector-curvature="0" />
          <path
             id="path6107"
             d="m 471.63,2442.87 1.487,2.134 3.085,-3.268 -2.632,5.984 -1.488,-1.423 -14.714,18.267 -1.913,-2.745 -4.741,5.073 4.159,-8.566 1.913,1.829 z"
             inkscape:connector-curvature="0" />
        </g>
        <path
           id="path6109"
           transform="matrix(18.68858,0,0,18.68858,-7793.46,-46183.6)"
           d="m 431.5,2475.85 c -4.03,0 -7.309,2.688 -7.309,5.971 0,1.53 0.72,2.927 1.887,3.98 l 0.137,3.569 c 0,0 2.128,1.372 5.353,1.372 3.225,0 5.216,-1.372 5.216,-1.372 l 0.103,-3.534 c 1.195,-1.059 1.922,-2.464 1.922,-4.01 0,-3.283 -3.277,-5.971 -7.309,-5.971 z"
           inkscape:connector-curvature="0"
           style="stroke:#000000" />
      </g>
      <g
         id="g6111"
         transform="matrix(18.68858,0,0,18.68858,-7793.06,-46183.6)">
        <path
           id="path6113"
           d="m 436.84,2482.11 c 0,1.165 -0.945,2.11 -2.11,2.11 -1.165,0 -2.11,-0.945 -2.11,-2.11 0,0 4.151,-2.231 4.219,0"
           inkscape:connector-curvature="0" />
        <path
           id="path6115"
           d="m 426.12,2482.11 c 0,1.165 0.944,2.109 2.11,2.109 1.165,0 2.11,-0.944 2.11,-2.109 0,0 -4.151,-2.231 -4.219,0"
           inkscape:connector-curvature="0" />
      </g>
      <path
         id="path6117"
         transform="matrix(18.68858,0,0,18.68858,-7793.46,-46183.6)"
         d="m 430.41,2486.13 h 2.176 l -1.088,-2.43 z"
         inkscape:connector-curvature="0" />
      <g
         id="g6119"
         transform="matrix(18.68858,0,0,18.68858,-8403.34,-45609.51)"
         style="fill:none;stroke:#000000">
        <path
           id="path6121"
           d="m 461.43,2456.85 v 2.669"
           inkscape:connector-curvature="0" />
        <path
           id="path6123"
           d="m 467.16,2456.85 v 2.669"
           inkscape:connector-curvature="0" />
        <path
           id="path6125"
           d="m 464.27,2457.26 v 2.427"
           inkscape:connector-curvature="0" />
      </g>
    </g>
    <g
       id="g6558"
       transform="matrix(0.03125,0,0,0.03125,0,796.36218)">
      <path
         id="path6546"
         d="M 0,0 H 512 V 512 H 0 z"
         inkscape:connector-curvature="0" />
      <g
         id="g6548"
         transform="matrix(0.91934,0,0,0.91934,-53.25253,-63.80602)">
        <path
           id="path6550"
           d="m 98.5714,226.6479 c 105.7143,0 110,1.4286 110,1.4286 C 344.9168,6.4868 452.862,307.9904 466.8557,417.0663 l -39.9405,0.1733 78.1356,136.3952 75.0333,-135.9768 -38.8586,-1.6019 C 451.5868,103.2874 211.336,89.5079 98.5714,226.6479 z"
           inkscape:connector-curvature="0"
           style="fill:#ffffff;stroke:#ffffff;stroke-width:1.08770001" />
      </g>
    </g>
    <g
       id="g6684"
       transform="matrix(0.03125,0,0,0.03125001,32,796.36218)">
      <path
         id="path6660"
         d="M 0,0 H 512 V 512 H 0 z"
         inkscape:connector-curvature="0" />
      <g
         id="g6662"
         transform="matrix(18.68858,0,0,18.68858,-228.51162,-19763.712)">
        <path
           id="path6664"
           d="m 28.6076,1066.9685 -2.5623,-8.0321 -1.2558,3.6077 -6.1542,-3.8846 2.4777,4.6005 -7.8409,-1.5622 5.918,4.7199 -5.1112,1.1722 6.357,1.7406 -2.9009,2.6236 9.4798,-0.7618 1.5928,-4.2238 z"
           inkscape:connector-curvature="0"
           style="fill:#ffffff;fill-rule:evenodd" />
        <g
           id="g6666"
           transform="matrix(1.08546,0,0,1.08546,-344.39114,778.02555)"
           style="fill:#ffffff;stroke:#000000">
          <path
             id="path6668"
             d="m 334.666,282.3076 h 15.8001 c 0,-5.4029 0.0965,-8.5645 -4.8616,-9.345 0.8061,-1.0104 1.2829,-2.4249 1.2829,-3.9809 0,-3.0727 -1.9511,-5.5665 -4.3552,-5.5665 -2.4041,0 -4.3552,2.4938 -4.3552,5.5665 0,1.5954 0.5419,3.0331 1.3842,4.0484 -4.5635,0.8591 -4.8953,3.8801 -4.8953,9.2775 z"
             inkscape:connector-curvature="0"
             style="fill:#ffffff;fill-rule:evenodd;stroke:#000000;stroke-width:0.92129999" />
        </g>
        <path
           id="path6670"
           transform="matrix(1.32915,0,0,1.07015,-8.99714,-74.93341)"
           d="m 27.0427,1069.8066 c 0,1.0518 -0.4178,1.9045 -0.9332,1.9045 -0.5154,0 -0.9332,-0.8527 -0.9332,-1.9045 0,-1.0518 0.4178,-1.9044 0.9332,-1.9044 0.5154,0 0.9332,0.8527 0.9332,1.9044 z"
           inkscape:connector-curvature="0" />
        <path
           id="path6672"
           transform="matrix(1.32915,0,0,1.07015,-5.55064,-74.93341)"
           d="m 27.0427,1069.8066 c 0,1.0518 -0.4178,1.9045 -0.9332,1.9045 -0.5154,0 -0.9332,-0.8527 -0.9332,-1.9045 0,-1.0518 0.4178,-1.9044 0.9332,-1.9044 0.5154,0 0.9332,0.8527 0.9332,1.9044 z"
           inkscape:connector-curvature="0" />
        <path
           id="path6674"
           d="m 22.354,1081.2424 v 3.3225"
           inkscape:connector-curvature="0"
           style="fill:none;stroke:#000000" />
        <path
           id="path6676"
           d="m 32.319,1081.2424 v 3.3225"
           inkscape:connector-curvature="0"
           style="fill:none;stroke:#000000" />
      </g>
    </g>
    <g
       id="g6854"
       transform="matrix(0.03125,0,0,0.03125,80,796.36218)">
      <path
         id="path6834"
         d="M 0,0 H 512 V 512 H 0 z"
         inkscape:connector-curvature="0" />
      <g
         id="g6836"
         transform="matrix(18.68858,0,0,18.68858,-11126.09,-25183.594)">
        <path
           id="path6838"
           d="m 609.3107,1348.6868 c 1.5798,0.2053 2.8132,1.9242 2.8132,3.999 0,1.149 -0.3936,2.1749 -0.9997,2.9061 3.2855,0.6182 4.5013,5.3841 3.5339,10.0438 h -2.2785 l -0.6045,8.1142 h -5.7892 l -0.5347,-8.1142 h -2.1622 c -0.8532,-4.5376 -0.0783,-9.5337 3.5107,-10.0903 -0.5801,-0.7278 -0.9532,-1.739 -0.9532,-2.8596 0,-2.213 1.4086,-3.999 3.1387,-3.999 0.108,0 0.2202,-0.016 0.3255,0 z"
           inkscape:connector-curvature="0"
           style="fill-rule:evenodd;stroke:#ffffff;stroke-dasharray:1, 1" />
        <path
           id="path6840"
           d="m 597.7341,1356.3305 h 3.6946"
           inkscape:connector-curvature="0"
           style="fill:none;stroke:#000000" />
        <path
           id="path6842"
           d="m 597.7341,1358.282 h 3.6946"
           inkscape:connector-curvature="0"
           style="fill:none;stroke:#000000" />
        <path
           id="path6844"
           d="m 616.6957,1354.9597 c 1.2401,0.2258 1.9399,0.6057 1.6921,2.0186 0.4226,-1.0251 0.7635,-1.5447 2.4578,-0.9653"
           inkscape:connector-curvature="0" />
        <path
           id="path6846"
           d="m 609.0399,1372.7822 v -5.8937"
           inkscape:connector-curvature="0"
           style="fill:none;stroke:#ffffff;stroke-dasharray:1, 1" />
      </g>
    </g>
    <g
       id="g7036"
       transform="matrix(0.03125,0,0,0.03125,64,796.36218)">
      <path
         id="path7022"
         d="M 0,0 H 512 V 512 H 0 z"
         inkscape:connector-curvature="0" />
      <g
         id="g7024"
         transform="matrix(15,0,0,15,16,-3824)">
        <use
           id="use7026"
           transform="translate(36,252)"
           height="1052.3621"
           width="744.09399"
           x="0"
           y="0" />
        <path
           id="path7028"
           d="m 16,256 c 1.6667,1.6 6.6667,4.8 10,4.8 0,1.6 0,4.8 0,6.4 0,6.4 -5,16 -10,20.8 -5,-4.8 -10,-14.4 -10,-20.8 0,-1.6 0,-4.8 0,-6.4 3.3333,0 8.3333,-3.2 10,-4.8 z"
           inkscape:connector-curvature="0"
           style="fill:#ffffff" />
      </g>
    </g>
    <g
       id="g7143"
       transform="matrix(0.03125,0,0,0.03125,96,812.36218)">
      <path
         id="path7129"
         d="M 0,0 H 512 V 512 H 0 z"
         inkscape:connector-curvature="0" />
      <g
         id="g7131"
         transform="matrix(15,0,0,15,-3224,-3284)">
        <use
           id="use7133"
           transform="translate(252,216)"
           height="1052.3621"
           width="744.09399"
           x="0"
           y="0" />
        <path
           id="path7135"
           d="m 220,222 c -2.216,0 -4,1.784 -4,4 v 20 c 0,2.216 1.784,4 4,4 h 24 c 2.216,0 4,-1.784 4,-4 v -20 c 0,-2.216 -1.784,-4 -4,-4 h -24 z m 0,4 24,0 0,20 -24,0 0,-20 z m 10,4 0,4 -4,0 0,4 4,0 0,4 4,0 0,-4 4,0 0,-4 -4,0 0,-4 -4,0 z"
           inkscape:connector-curvature="0"
           style="fill:#ffffff" />
      </g>
    </g>
  </g>
</svg>
