<?xml version="1.0" encoding="UTF-8" standalone="no"?>
<!-- Created with Inkscape (http://www.inkscape.org/) -->

<svg
   xmlns:dc="http://purl.org/dc/elements/1.1/"
   xmlns:cc="http://creativecommons.org/ns#"
   xmlns:rdf="http://www.w3.org/1999/02/22-rdf-syntax-ns#"
   xmlns:svg="http://www.w3.org/2000/svg"
   xmlns="http://www.w3.org/2000/svg"
   xmlns:sodipodi="http://sodipodi.sourceforge.net/DTD/sodipodi-0.dtd"
   xmlns:inkscape="http://www.inkscape.org/namespaces/inkscape"
   width="180"
   height="80"
   id="svg2"
   version="1.1"
   inkscape:version="0.48.5 r10040"
   sodipodi:docname="icons.svg">
  <defs
     id="defs4" />
  <sodipodi:namedview
     id="base"
     pagecolor="#ffffff"
     bordercolor="#666666"
     borderopacity="1.0"
     inkscape:pageopacity="0.0"
     inkscape:pageshadow="2"
     inkscape:zoom="2.7616448"
     inkscape:cx="87.585782"
     inkscape:cy="-36.586944"
     inkscape:document-units="px"
     inkscape:current-layer="layer1"
     showgrid="true"
     inkscape:window-width="958"
     inkscape:window-height="1059"
     inkscape:window-x="0"
     inkscape:window-y="19"
     inkscape:window-maximized="0"
     fit-margin-top="0"
     fit-margin-left="0"
     fit-margin-right="0"
     fit-margin-bottom="0"
     inkscape:snap-global="false">
    <inkscape:grid
       type="xygrid"
       id="grid3058"
       empspacing="10"
       visible="true"
       enabled="true"
       snapvisiblegridlinesonly="true"
       spacingx="2px"
       spacingy="2px"
       originx="0px"
       originy="0px" />
  </sodipodi:namedview>
  <metadata
     id="metadata7">
    <rdf:RDF>
      <cc:Work
         rdf:about="">
        <dc:format>image/svg+xml</dc:format>
        <dc:type
           rdf:resource="http://purl.org/dc/dcmitype/StillImage" />
        <dc:title />
      </cc:Work>
    </rdf:RDF>
  </metadata>
  <g
     inkscape:label="Layer 1"
     inkscape:groupmode="layer"
     id="layer1"
     transform="translate(0,-776.36218)">
    <g
       id="g3535"
       transform="matrix(0.03906249,0,0,0.03906249,0,816.36218)">
      <path
         id="path3501"
         d="M 0,0 H 512 V 512 H 0 z"
         inkscape:connector-curvature="0" />
      <g
         id="g3503"
         transform="matrix(18.68858,0,0,18.68858,-9758.785,-16570.13)">
        <path
           id="path3505"
           d="m 535.1414,907.6182 -1.4963,2.5916 c 2.7227,1.572 5.2595,2.6731 7.9834,2.8469 -1.5276,-2.2948 -3.747,-3.8565 -6.4871,-5.4385 z"
           inkscape:connector-curvature="0"
           style="fill:#ffffff;fill-rule:evenodd" />
        <path
           id="path3507"
           transform="matrix(-0.5,0.86603,-0.86603,-0.5,0,0)"
           d="m 517.3518,-917.1353 h 5.1662 v 10.5735 h -5.1662 z"
           inkscape:connector-curvature="0"
           style="fill:#ffffff;stroke:#000000" />
        <path
           id="path3509"
           d="m 524.8289,902.7061 10.0349,5.7632"
           inkscape:connector-curvature="0"
           style="fill:none;stroke:#000000" />
        <path
           id="path3511"
           d="m 526.738,901.1315 -2.9272,5.0701"
           inkscape:connector-curvature="0"
           style="fill:none;stroke:#ffffff" />
        <path
           id="path3513"
           d="m 541.1437,891.8249 -0.7745,2.8906 c 3.0368,0.8137 5.7721,1.2207 8.4482,0.6836 -2.0695,-1.8212 -4.6175,-2.7553 -7.6736,-3.5742 z"
           inkscape:connector-curvature="0"
           style="fill:#ffffff;fill-rule:evenodd" />
        <path
           id="path3515"
           transform="matrix(-0.25882,0.96593,-0.96593,-0.25882,0,0)"
           d="m 720.2805,-753.4061 h 5.1662 v 10.5735 h -5.1662 z"
           inkscape:connector-curvature="0"
           style="fill:#ffffff;stroke:#000000" />
        <path
           id="path3517"
           d="M 529.248,889.4304 540.4326,892.4"
           inkscape:connector-curvature="0"
           style="fill:none;stroke:#000000" />
        <path
           id="path3519"
           d="m 538.7072,899.9243 -1.1439,2.7653 c 2.9052,1.2017 5.5644,1.961 8.2875,1.7764 -1.8151,-2.0749 -4.22,-3.3324 -7.1437,-4.5418 z"
           inkscape:connector-curvature="0"
           style="fill:#ffffff;fill-rule:evenodd" />
        <path
           id="path3521"
           transform="matrix(-0.38223,0.92407,-0.92407,-0.38223,0,0)"
           d="m 624.582,-841.6603 h 5.1662 v 10.5735 h -5.1662 z"
           inkscape:connector-curvature="0"
           style="fill:#ffffff;stroke:#000000" />
        <path
           id="path3523"
           d="m 527.7029,896.2185 10.695,4.4194"
           inkscape:connector-curvature="0"
           style="fill:none;stroke:#000000" />
        <path
           id="path3525"
           d="m 529.5264,894.5944 -2.2377,5.4099"
           inkscape:connector-curvature="0"
           style="fill:none;stroke:#ffffff" />
        <path
           id="path3527"
           d="m 531.3477,887.7342 -1.5152,5.6549"
           inkscape:connector-curvature="0"
           style="fill:none;stroke:#ffffff" />
      </g>
    </g>
    <g
       id="g3953"
       transform="matrix(0.03906249,0,0,0.03906249,20.000001,776.36218)">
      <path
         id="path3939"
         d="M 0,0 H 512 V 512 H 0 z"
         inkscape:connector-curvature="0" />
      <g
         id="g3941"
         transform="matrix(15,0,0,15,16,-1123.9999)">
        <use
           id="use3943"
           transform="translate(36,72)"
           height="1052.3621"
           width="744.09399"
           x="0"
           y="0" />
        <path
           id="path3945"
           d="m 16,84 c 4,5 -3,3 -11,3 3.4195,1.1398 6.0146,2.0114 7.875,2.75 C 9.8924,90.7102 5.85,91.55 0,92 5.85,92.45 9.8924,93.2898 12.875,94.25 11.0146,94.9886 8.4195,95.8602 5,97 c 8,0 15,-2 11,3 1.3106,-0.6553 2.8226,-1.3056 4.2812,-2.0312 1.688,1.1644 2.9715,2.0312 5.3125,2.0312 3.2,0 6.4062,-3.2 6.4062,-8 0,-4.8 -3.2063,-8 -6.4062,-8 -2.3567,0 -3.6387,0.8549 -5.3438,2.0312 C 18.799,85.3106 17.3029,84.6515 15.9999,84 z m 8.8125,3.1875 c 2.2091,0 4,2.1615 4,4.8125 0,2.651 -1.7909,4.8125 -4,4.8125 -0.6041,0 -1.174,-0.181 -1.6875,-0.4688 C 24.8005,95.1784 26,93.7828 26,91.9999 c 0,-1.7828 -1.1995,-3.1785 -2.875,-4.3438 0.5135,-0.2877 1.0834,-0.4688 1.6875,-0.4688 z"
           inkscape:connector-curvature="0"
           style="fill:#ffffff" />
      </g>
    </g>
    <g
       id="g4112"
       transform="matrix(0.03906249,0,0,0.03906249,120,776.36218)">
      <path
         id="path4096"
         d="M 0,0 H 512 V 512 H 0 z"
         inkscape:connector-curvature="0" />
      <g
         id="g4098"
         transform="matrix(18.68858,0,0,18.68858,-7718.3732,-699.84727)">
        <path
           id="path4100"
           d="m 415.8444,38.8271 c 1.6347,1.393 2.8253,5.0913 2.8253,9.4433 0,2.3736 -0.3699,4.5289 -0.9527,6.2428 1.6659,3.8221 4.5979,6.5498 9.6256,9.3799 4.8991,-2.6084 7.7065,-5.1674 9.2971,-8.968 -0.6689,-1.769 -1.0841,-4.0914 -1.0841,-6.6547 0,-4.352 1.1906,-8.0503 2.8253,-9.4433 -7.5122,1.6705 -15.0243,1.9544 -22.5364,0 z"
           inkscape:connector-curvature="0"
           style="fill:#ffffff;fill-rule:evenodd" />
        <path
           id="path4102"
           d="m 427.6055,38.1047 -3.4189,10.2134 2.2312,1.0161 -2.2186,9.0735 6.1575,-10.1317 -2.487,-1.1042 4.6973,-8.9977 -4.9615,-0.0695 z"
           inkscape:connector-curvature="0"
           style="fill-rule:evenodd" />
        <path
           id="path4104"
           d="m 424.7574,47.0076 -3.363,2.8448 3.9045,-1.0911"
           inkscape:connector-curvature="0"
           style="fill-rule:evenodd" />
      </g>
    </g>
    <g
       id="g4430"
       transform="matrix(0.03906249,0,0,0.03906249,140,776.36218)">
      <path
         id="path4402"
         d="M 0,0 H 512 V 512 H 0 z"
         inkscape:connector-curvature="0" />
      <g
         id="g4404"
         transform="matrix(15,0,0,15,-4844,-2204)">
        <use
           id="use4406"
           transform="translate(360,144)"
           height="1052.3621"
           width="744.09399"
           x="0"
           y="0" />
      </g>
      <g
         id="g4408"
         transform="matrix(15,0,0,15,-8264,-13489.433)"
         style="fill:#ffffff">
        <path
           id="path4410"
           transform="translate(40,452.36218)"
           d="m 532,464 a 4,4 0 1 1 -8,0 4,4 0 1 1 8,0 z"
           inkscape:connector-curvature="0" />
        <path
           id="path4412"
           d="m 567,906.362 h 2 a 1,1 0 0 1 1,1 v 2 a 1,1 0 0 1 -1,1 h -2 a 1,1 0 0 1 -1,-1 v -2 a 1,1 0 0 1 1,-1"
           inkscape:connector-curvature="0" />
        <path
           id="path4414"
           d="m 575,914.362 h 2 a 1,1 0 0 1 1,1 v 2 a 1,1 0 0 1 -1,1 h -2 a 1,1 0 0 1 -1,-1 v -2 a 1,1 0 0 1 1,-1"
           inkscape:connector-curvature="0" />
        <path
           id="path4416"
           d="m 567,922.362 h 2 a 1,1 0 0 1 1,1 v 2 a 1,1 0 0 1 -1,1 h -2 a 1,1 0 0 1 -1,-1 v -2 a 1,1 0 0 1 1,-1"
           inkscape:connector-curvature="0" />
        <path
           id="path4418"
           d="m 559,914.362 h 2 a 1,1 0 0 1 1,1 v 2 a 1,1 0 0 1 -1,1 h -2 a 1,1 0 0 1 -1,-1 v -2 a 1,1 0 0 1 1,-1"
           inkscape:connector-curvature="0" />
      </g>
      <g
         id="g4420"
         transform="matrix(15,0,0,15,-4844,-2204)">
        <path
           id="path4422"
           d="m 340,148 c -8.8366,0 -16,7.1634 -16,16 0,8.8366 7.1634,16 16,16 8.8366,0 16,-7.1634 16,-16 0,-8.8366 -7.1634,-16 -16,-16 z m 0,4 c 6.6274,0 12,5.3726 12,12 0,6.6274 -5.3726,12 -12,12 -6.6274,0 -12,-5.3726 -12,-12 0,-6.6274 5.3726,-12 12,-12 z"
           inkscape:connector-curvature="0"
           style="fill:#ffffff" />
      </g>
    </g>
    <g
       id="g4568"
       transform="matrix(0.03906249,0,0,0.03906249,80,836.36218)">
      <path
         id="path4542"
         d="M 0,0 H 512 V 512 H 0 z"
         inkscape:connector-curvature="0" />
      <g
         id="g4544"
         transform="matrix(18.68858,0,0,18.68858,5785.3495,-6703.5959)">
        <path
           id="path4546"
           d="m -295.8562,361.9053 c -2.8817,0 -5.5316,0.9159 -7.6029,2.4961 0.3897,0.1065 0.7451,0.2662 1.0409,0.4992 1.3895,1.0948 0.9615,3.2361 -0.9956,4.7782 -1.285,1.0125 -2.9045,1.5064 -4.254,1.4263 -0.1267,0.6527 -0.181,1.3102 -0.181,1.9969 0,4.9534 3.4177,9.1755 8.1912,10.6617 -1.4471,-1.1257 -1.4181,-3.7856 -0.362,-5.1111 -5.3842,-4.3015 -1.916,-8.9909 4.1635,-9.9009 6.5668,0.358 9.0664,5.757 4.1635,9.9009 1.3441,1.3141 0.7819,3.9506 -0.362,5.1111 4.7735,-1.4862 8.2365,-5.7083 8.2365,-10.6617 0,-0.6866 -0.0996,-1.3442 -0.2263,-1.9969 -1.3496,0.0801 -2.969,-0.4138 -4.254,-1.4263 -1.9571,-1.5421 -2.3851,-3.6833 -0.9956,-4.7782 0.2957,-0.233 0.6511,-0.3927 1.0409,-0.4992 -2.0711,-1.5795 -4.7219,-2.496 -7.6029,-2.4961 z"
           inkscape:connector-curvature="0"
           style="fill:#ffffff" />
        <path
           id="path4548"
           transform="matrix(1.01748,0,0,0.76,-750.25148,91.13993)"
           d="m 450,369.3309 c 0,2.5371 -1.4341,4.5938 -3.2031,4.5938 -1.769,0 -3.2031,-2.0567 -3.2031,-4.5938 0,-2.5371 1.4341,-4.5938 3.2031,-4.5938 1.769,0 3.2031,2.0567 3.2031,4.5938 z"
           inkscape:connector-curvature="0"
           style="fill:#ffffff" />
        <path
           id="path4550"
           transform="matrix(0.48077,0,0,0.6266,-510.45155,141.30344)"
           d="m 450,369.3309 c 0,2.5371 -1.4341,4.5938 -3.2031,4.5938 -1.769,0 -3.2031,-2.0567 -3.2031,-4.5938 0,-2.5371 1.4341,-4.5938 3.2031,-4.5938 1.769,0 3.2031,2.0567 3.2031,4.5938 z"
           inkscape:connector-curvature="0" />
        <path
           id="path4552"
           d="m -287.8221,363.6428 c 0,3.2598 -3.5892,5.9054 -8.0115,5.9054 -4.4223,0 -8.0115,-2.6456 -8.0115,-5.9054 0,-2.5906 16.023,-1.8496 16.023,0 z"
           inkscape:connector-curvature="0"
           style="stroke:#000000;stroke-width:1.07200003" />
        <path
           id="path4554"
           transform="matrix(-0.56483,-0.49232,-0.77209,0.42191,229.29664,410.36719)"
           d="m 412.6562,375.3153 c 0,1.0614 -0.7625,1.9219 -1.7031,1.9219 -0.9406,0 -1.7031,-0.8605 -1.7031,-1.9219 0,-1.0614 0.7625,-1.9219 1.7031,-1.9219 0.9406,0 1.7031,0.8605 1.7031,1.9219 z"
           inkscape:connector-curvature="0"
           style="fill:#ffffff" />
        <path
           id="path4556"
           transform="matrix(-0.50978,-0.49579,-0.63903,0.60535,159.21882,339.61568)"
           d="m 412.6562,375.3153 c 0,1.0614 -0.7625,1.9219 -1.7031,1.9219 -0.9406,0 -1.7031,-0.8605 -1.7031,-1.9219 0,-1.0614 0.7625,-1.9219 1.7031,-1.9219 0.9406,0 1.7031,0.8605 1.7031,1.9219 z"
           inkscape:connector-curvature="0"
           style="fill:#ffffff" />
        <path
           id="path4558"
           transform="matrix(0.56483,-0.49232,0.77209,0.42191,-820.96385,410.36719)"
           d="m 412.6562,375.3153 c 0,1.0614 -0.7625,1.9219 -1.7031,1.9219 -0.9406,0 -1.7031,-0.8605 -1.7031,-1.9219 0,-1.0614 0.7625,-1.9219 1.7031,-1.9219 0.9406,0 1.7031,0.8605 1.7031,1.9219 z"
           inkscape:connector-curvature="0"
           style="fill:#ffffff" />
        <path
           id="path4560"
           transform="matrix(0.50978,-0.49579,0.63903,0.60535,-750.88604,339.61568)"
           d="m 412.6562,375.3153 c 0,1.0614 -0.7625,1.9219 -1.7031,1.9219 -0.9406,0 -1.7031,-0.8605 -1.7031,-1.9219 0,-1.0614 0.7625,-1.9219 1.7031,-1.9219 0.9406,0 1.7031,0.8605 1.7031,1.9219 z"
           inkscape:connector-curvature="0"
           style="fill:#ffffff" />
      </g>
    </g>
    <g
       id="g4917"
       transform="matrix(0.03981917,0,0,0.03977536,39.612585,815.99719)">
      <path
         id="path4885"
         d="M 0,0 H 512 V 512 H 0 z"
         inkscape:connector-curvature="0" />
      <g
         id="g4887"
         transform="matrix(18.68858,0,0,18.68858,-908.73432,-34037.112)">
        <path
           id="path4889"
           d="m 66.2721,1836.0347 c -1.9747,-1.334 -4.339,-2.1127 -6.9014,-2.1126 l -8e-6,4.2957 c 2.5771,0 4.9201,-0.8349 6.9015,-2.1831 z"
           inkscape:connector-curvature="0"
           style="fill:#ffffff" />
        <path
           id="path4891"
           transform="matrix(0,1,-1,0,0,0)"
           d="m 1833.951,-58.4618 h 4.238 v 7.8767 h -4.238 z"
           inkscape:connector-curvature="0"
           style="fill:#ffffff" />
        <path
           id="path4893"
           d="m 58.7189,1833.6852 -7.4e-5,4.7697"
           inkscape:connector-curvature="0"
           style="fill:none;stroke:#000000" />
        <path
           id="path4895"
           d="m 52.28,1833.6851 -7.4e-5,4.7698"
           inkscape:connector-curvature="0"
           style="fill:none;stroke:#000000" />
        <path
           id="path4897"
           d="m 49.5178,1842.6241 c 7.2056,0 13.757,-2.5477 19.2969,-6.6618 -5.5215,-4.0707 -12.1322,-6.4467 -19.2968,-6.4465"
           inkscape:connector-curvature="0"
           style="fill:none;stroke:#ffffff" />
        <path
           id="path4899"
           d="m 61.1508,1848.2885 c 4.8277,-3.6259 8.6652,-7.768 11.0315,-12.3766 -2.7976,-5.4485 -7.7405,-10.1865 -13.9813,-14.1594"
           inkscape:connector-curvature="0"
           style="fill:none;stroke:#ffffff" />
        <path
           id="path4901"
           d="m 71.6451,1848.1519 c 4.3116,-8.2014 3.6289,-18.962 -1.1315,-26.4994"
           inkscape:connector-curvature="0"
           style="fill:none;stroke:#ffffff" />
        <path
           id="path4903"
           d="m 68.9826,1848.1519 c 8.2173,-8.2014 6.9162,-18.962 -2.1565,-26.4994"
           inkscape:connector-curvature="0"
           style="fill:none;stroke:#ffffff" />
        <path
           id="path4905"
           d="m 55.8298,1848.2885 c 7.1153,-3.6259 12.7712,-7.768 16.2588,-12.3766 -4.1232,-5.4485 -11.4083,-10.1865 -20.6063,-14.1594"
           inkscape:connector-curvature="0"
           style="fill:none;stroke:#ffffff" />
        <path
           id="path4907"
           d="m 49.5178,1844.9925 c 7.3058,0 13.9482,-3.4684 19.5651,-9.0691 -5.5982,-5.5417 -12.3008,-8.7763 -19.565,-8.776"
           inkscape:connector-curvature="0"
           style="fill:none;stroke:#ffffff" />
        <path
           id="path4909"
           d="m 49.1571,1821.783 h 26.4314 v 26.4314 H 49.1571 z"
           inkscape:connector-curvature="0"
           style="fill:none;stroke:#000000" />
      </g>
    </g>
    <g
       id="g5053"
       transform="matrix(0.03906249,0,0,0.03906249,60.000005,816.36218)">
      <path
         id="path5029"
         d="M 0,0 H 512 V 512 H 0 z"
         inkscape:connector-curvature="0" />
      <g
         id="g5031"
         transform="matrix(18.68858,0,0,18.68858,-9081.305,-40151.388)">
        <g
           id="g5033"
           transform="translate(72.9145,5.3077)">
          <path
             id="path5035"
             d="m 438.577,2164.8555 c 0,2.5886 -5.2097,4.6871 -11.6362,4.6871 -6.4265,0 -11.6362,-2.0985 -11.6362,-4.6871 0,-2.5886 5.2097,-4.6872 11.6362,-4.6872 6.4265,0 11.6362,2.0985 11.6362,4.6872 z"
             inkscape:connector-curvature="0"
             style="fill:#ffffff" />
          <path
             id="path5037"
             transform="matrix(0.79688,0,0,0.59302,86.72236,878.42974)"
             d="m 438.577,2164.8555 c 0,2.5886 -5.2097,4.6871 -11.6362,4.6871 -6.4265,0 -11.6362,-2.0985 -11.6362,-4.6871 0,-2.5886 5.2097,-6.8929 11.6362,-6.8929 6.4265,0 11.6362,4.3042 11.6362,6.8929 z"
             inkscape:connector-curvature="0"
             style="fill:#ffffff;stroke:#000000;stroke-width:1.45469999" />
          <path
             id="path5039"
             transform="matrix(0.4564,0,0,0.4564,232.08703,1173.2419)"
             d="m 438.577,2164.8555 c 0,2.5886 -5.2097,4.6871 -11.6362,4.6871 -6.4265,0 -11.6362,-2.0985 -11.6362,-4.6871 0,-2.5886 5.2097,-4.6872 11.6362,-4.6872 6.4265,0 11.6362,2.0985 11.6362,4.6872 z"
             inkscape:connector-curvature="0"
             style="stroke:#ffffff;stroke-width:2.19109988" />
          <path
             id="path5041"
             transform="matrix(0.36628,0,0,0.36628,270.56136,1369.2708)"
             d="m 438.577,2164.8555 c 0,2.5886 -5.2097,4.6871 -11.6362,4.6871 -6.4265,0 -11.6362,-2.0985 -11.6362,-4.6871 0,-2.5886 5.2097,-4.6872 11.6362,-4.6872 6.4265,0 11.6362,2.0985 11.6362,4.6872 z"
             inkscape:connector-curvature="0"
             style="fill:#ffffff" />
        </g>
        <path
           id="path5043"
           d="m 497.8968,2149.822 1.1354,8.9233 h 1.6464 l 1.1354,-8.9233 z"
           inkscape:connector-curvature="0"
           style="fill:#ffffff" />
        <path
           id="path5045"
           d="m 498.9385,2159.6714 h 1.8338 v 1.8338 h -1.8338 z"
           inkscape:connector-curvature="0"
           style="fill:#ffffff" />
      </g>
    </g>
    <g
       id="g5173"
       transform="matrix(0.03906249,0,0,0.03906249,80.000007,816.36218)">
      <path
         id="path5155"
         d="M 0,0 H 512 V 512 H 0 z"
         inkscape:connector-curvature="0" />
      <g
         id="g5157"
         transform="matrix(14.99999,0,0,14.99999,16,-4489.4306)">
        <use
           id="use5159"
           transform="translate(36,296.36218)"
           height="1052.3621"
           width="744.09399"
           x="0"
           y="0" />
      </g>
      <g
         id="g5161"
         transform="matrix(6.66666,0,0,6.66666,-2310.666,-2916.4138)"
         style="fill:#ffffff">
        <path
           id="path5163"
           d="m 367,444.3622 0,45 c 0,4.5 0,4.5 4.5,4.5 h 27 c 4.5,0 4.5,0 4.5,-4.5 v -45 c 0,-4.5 0,-4.5 -4.5,-4.5 h -27 c -4.5,0 -4.5,0 -4.5,4.5 z m 9,4.5 18,0 0,31.5 -18,0 z"
           inkscape:connector-curvature="0" />
        <path
           id="path5165"
           d="m 369,500.612 h 32 a 2,2 0 0 1 2,2 v 7.25 a 2,2 0 0 1 -2,2 h -32 a 2,2 0 0 1 -2,-2 v -7.25 a 2,2 0 0 1 2,-2"
           inkscape:connector-curvature="0" />
      </g>
    </g>
    <g
       id="g5290"
       transform="matrix(0.03906249,0,0,0.03906249,60.000005,776.36218)">
      <path
         id="path5272"
         d="M 0,0 H 512 V 512 H 0 z"
         inkscape:connector-curvature="0" />
      <g
         id="g5274"
         transform="matrix(14.99999,0,0,14.99999,-1603.998,-3823.9962)">
        <use
           id="use5276"
           transform="translate(144,252)"
           height="1052.3621"
           width="744.09399"
           x="0"
           y="0" />
      </g>
      <g
         id="g5278"
         transform="matrix(3.75,0,0,3.75,-1783.9978,-2730.3554)"
         style="fill:#ffffff">
        <path
           id="path5280"
           transform="matrix(0,1,-1,0,0,0)"
           d="m 740.362,-568 h 112 a 8,8 0 0 1 8,8 v 32 a 8,8 0 0 1 -8,8 h -112 a 8,8 0 0 1 -8,-8 v -32 a 8,8 0 0 1 8,-8"
           inkscape:connector-curvature="0" />
        <path
           id="path5282"
           transform="scale(-1,-1)"
           d="m -600,-820.362 h 112 a 8,8 0 0 1 8,8 v 32 a 8,8 0 0 1 -8,8 h -112 a 8,8 0 0 1 -8,-8 v -32 a 8,8 0 0 1 8,-8"
           inkscape:connector-curvature="0" />
      </g>
    </g>
    <path
       inkscape:connector-curvature="0"
       d="M 100.00001,816.36218 H 120 v 19.99999 h -19.99999 z"
       id="path5596" />
    <g
       transform="matrix(0.58593735,0,0,0.58593735,100.62501,688.08096)"
       id="g5598">
      <use
         y="0"
         x="0"
         width="744.09399"
         height="1052.3621"
         transform="translate(36,216)"
         id="use5600" />
      <path
         style="fill:#ffffff"
         inkscape:connector-curvature="0"
         d="m 16,220 c -6.4,0 -8,3.2125 -8,4.8125 v 4.7812 c 0,0.8864 0.7073,1.5938 1.5938,1.5938 h 1.5938 v 9.625 H 9.5938 C 8.7074,240.8125 8,241.5198 8,242.4063 v 4.7812 c 0,1.6 1.6,4.8125 8,4.8125 6.4,0 8,-3.2125 8,-4.8125 v -4.7812 c 0,-0.8864 -0.7074,-1.5938 -1.5938,-1.5938 h -1.5938 v -9.625 h 1.5938 c 0.8864,0 1.5938,-0.7073 1.5938,-1.5938 v -4.7812 C 24,223.2125 22.4,220 16,220 z m -1.5938,11.1875 3.1875,0 0,9.625 -3.1875,0 0,-9.625 z"
         id="path5602" />
      <rect
         style="fill:#000000;fill-opacity:1;fill-rule:nonzero;stroke:none"
         id="rect7152"
         width="1.8723328"
         height="5.5849929"
         x="109.07539"
         y="47.210171"
         transform="matrix(1.7066671,0,0,1.7066671,-171.73339,150.66665)" />
    </g>
    <path
       id="path3784"
       d="m 101.29612,817.07749 1.33488,0.0633 9.01049,11.04405 0.0914,0.0198 -0.0774,0.0117 0.15933,0.20756 -0.0395,-0.14033 -0.0424,-0.0789 -6.72364,-10.95101 1.71844,0.0815 4.9832,10.68385 -2.72776,-10.57689 1.33489,0.0633 1.50548,10.7343 0.0826,0.20391 -0.0691,-10.86623 1.30415,0.0618 -1.13789,11.02442 0.0146,0.0161 1.78289,-7.4395 -0.14196,2.99369 -1.62634,4.46196 0.45092,0.54453 -0.46988,-0.46847 -0.0154,-7.3e-4 -0.001,0.0307 -0.0161,0.0147 -7.3e-4,0.0154 -0.0649,0.72012 -0.005,-0.87723 -0.0299,-0.0168 7.3e-4,-0.0154 -0.44064,-0.43635 -0.15417,0.008 0.53416,0.40997 -0.68758,-0.41725 -10.36829,0.0776 0.0561,-1.18209 10.14711,1.01974 -0.0446,-0.0328 -10.03628,-2.38386 0.0597,-1.25888 9.87133,3.59161 -9.76941,-5.7409 0.083,-1.75015 10.06565,7.60135 0.19871,0.0248 -10.15011,-10.03639 0.0502,-1.05926 z m -0.59842,12.61943 10.24822,-1.43734 -6.27434,1.62578 -3.97394,-0.18844 z m 11.14981,-1.31768 0.011,0.0928 0.0584,0.0643 -0.0132,-0.0468 -0.0562,-0.1104 z"
       inkscape:connector-curvature="0"
       style="fill:#ffffff" />
    <g
       id="g6133"
       transform="matrix(0.03906249,0,0,0.03906249,160,776.36218)">
      <path
         id="path6099"
         d="M 0,0 H 512 V 512 H 0 z"
         inkscape:connector-curvature="0" />
      <g
         id="g6101"
         style="fill:#ffffff">
        <g
           id="g6103"
           transform="matrix(18.68858,0,0,18.68858,-8403.34,-45609.51)">
          <path
             id="path6105"
             d="m 452.02,2446.15 2.134,-1.487 -3.268,-3.085 5.984,2.632 -1.423,1.488 18.267,14.714 -2.745,1.913 5.073,4.741 -8.567,-4.159 1.83,-1.913 z"
             inkscape:connector-curvature="0" />
          <path
             id="path6107"
             d="m 471.63,2442.87 1.487,2.134 3.085,-3.268 -2.632,5.984 -1.488,-1.423 -14.714,18.267 -1.913,-2.745 -4.741,5.073 4.159,-8.566 1.913,1.829 z"
             inkscape:connector-curvature="0" />
        </g>
        <path
           id="path6109"
           transform="matrix(18.68858,0,0,18.68858,-7793.46,-46183.6)"
           d="m 431.5,2475.85 c -4.03,0 -7.309,2.688 -7.309,5.971 0,1.53 0.72,2.927 1.887,3.98 l 0.137,3.569 c 0,0 2.128,1.372 5.353,1.372 3.225,0 5.216,-1.372 5.216,-1.372 l 0.103,-3.534 c 1.195,-1.059 1.922,-2.464 1.922,-4.01 0,-3.283 -3.277,-5.971 -7.309,-5.971 z"
           inkscape:connector-curvature="0"
           style="stroke:#000000" />
      </g>
      <g
         id="g6111"
         transform="matrix(18.68858,0,0,18.68858,-7793.06,-46183.6)">
        <path
           id="path6113"
           d="m 436.84,2482.11 c 0,1.165 -0.945,2.11 -2.11,2.11 -1.165,0 -2.11,-0.945 -2.11,-2.11 0,0 4.151,-2.231 4.219,0"
           inkscape:connector-curvature="0" />
        <path
           id="path6115"
           d="m 426.12,2482.11 c 0,1.165 0.944,2.109 2.11,2.109 1.165,0 2.11,-0.944 2.11,-2.109 0,0 -4.151,-2.231 -4.219,0"
           inkscape:connector-curvature="0" />
      </g>
      <path
         id="path6117"
         transform="matrix(18.68858,0,0,18.68858,-7793.46,-46183.6)"
         d="m 430.41,2486.13 h 2.176 l -1.088,-2.43 z"
         inkscape:connector-curvature="0" />
      <g
         id="g6119"
         transform="matrix(18.68858,0,0,18.68858,-8403.34,-45609.51)"
         style="fill:none;stroke:#000000">
        <path
           id="path6121"
           d="m 461.43,2456.85 v 2.669"
           inkscape:connector-curvature="0" />
        <path
           id="path6123"
           d="m 467.16,2456.85 v 2.669"
           inkscape:connector-curvature="0" />
        <path
           id="path6125"
           d="m 464.27,2457.26 v 2.427"
           inkscape:connector-curvature="0" />
      </g>
    </g>
    <g
       id="g6558"
       transform="matrix(0.03906249,0,0,0.03906249,0,776.36218)">
      <path
         id="path6546"
         d="M 0,0 H 512 V 512 H 0 z"
         inkscape:connector-curvature="0" />
      <g
         id="g6548"
         transform="matrix(0.91934,0,0,0.91934,-53.25253,-63.80602)">
        <path
           id="path6550"
           d="m 98.5714,226.6479 c 105.7143,0 110,1.4286 110,1.4286 C 344.9168,6.4868 452.862,307.9904 466.8557,417.0663 l -39.9405,0.1733 78.1356,136.3952 75.0333,-135.9768 -38.8586,-1.6019 C 451.5868,103.2874 211.336,89.5079 98.5714,226.6479 z"
           inkscape:connector-curvature="0"
           style="fill:#ffffff;stroke:#ffffff;stroke-width:1.08770001" />
      </g>
    </g>
    <g
       id="g6684"
       transform="matrix(0.03906249,0,0,0.03906251,40,776.36217)">
      <path
         id="path6660"
         d="M 0,0 H 512 V 512 H 0 z"
         inkscape:connector-curvature="0" />
      <g
         id="g6662"
         transform="matrix(18.68858,0,0,18.68858,-228.51162,-19763.712)">
        <path
           id="path6664"
           d="m 28.6076,1066.9685 -2.5623,-8.0321 -1.2558,3.6077 -6.1542,-3.8846 2.4777,4.6005 -7.8409,-1.5622 5.918,4.7199 -5.1112,1.1722 6.357,1.7406 -2.9009,2.6236 9.4798,-0.7618 1.5928,-4.2238 z"
           inkscape:connector-curvature="0"
           style="fill:#ffffff;fill-rule:evenodd" />
        <g
           id="g6666"
           transform="matrix(1.08546,0,0,1.08546,-344.39114,778.02555)"
           style="fill:#ffffff;stroke:#000000">
          <path
             id="path6668"
             d="m 334.666,282.3076 h 15.8001 c 0,-5.4029 0.0965,-8.5645 -4.8616,-9.345 0.8061,-1.0104 1.2829,-2.4249 1.2829,-3.9809 0,-3.0727 -1.9511,-5.5665 -4.3552,-5.5665 -2.4041,0 -4.3552,2.4938 -4.3552,5.5665 0,1.5954 0.5419,3.0331 1.3842,4.0484 -4.5635,0.8591 -4.8953,3.8801 -4.8953,9.2775 z"
             inkscape:connector-curvature="0"
             style="fill:#ffffff;fill-rule:evenodd;stroke:#000000;stroke-width:0.92129999" />
        </g>
        <path
           id="path6670"
           transform="matrix(1.32915,0,0,1.07015,-8.99714,-74.93341)"
           d="m 27.0427,1069.8066 c 0,1.0518 -0.4178,1.9045 -0.9332,1.9045 -0.5154,0 -0.9332,-0.8527 -0.9332,-1.9045 0,-1.0518 0.4178,-1.9044 0.9332,-1.9044 0.5154,0 0.9332,0.8527 0.9332,1.9044 z"
           inkscape:connector-curvature="0" />
        <path
           id="path6672"
           transform="matrix(1.32915,0,0,1.07015,-5.55064,-74.93341)"
           d="m 27.0427,1069.8066 c 0,1.0518 -0.4178,1.9045 -0.9332,1.9045 -0.5154,0 -0.9332,-0.8527 -0.9332,-1.9045 0,-1.0518 0.4178,-1.9044 0.9332,-1.9044 0.5154,0 0.9332,0.8527 0.9332,1.9044 z"
           inkscape:connector-curvature="0" />
        <path
           id="path6674"
           d="m 22.354,1081.2424 v 3.3225"
           inkscape:connector-curvature="0"
           style="fill:none;stroke:#000000" />
        <path
           id="path6676"
           d="m 32.319,1081.2424 v 3.3225"
           inkscape:connector-curvature="0"
           style="fill:none;stroke:#000000" />
      </g>
    </g>
    <g
       id="g6854"
       transform="matrix(0.03906249,0,0,0.03906249,100.00001,776.36218)">
      <path
         id="path6834"
         d="M 0,0 H 512 V 512 H 0 z"
         inkscape:connector-curvature="0" />
      <g
         id="g6836"
         transform="matrix(18.68858,0,0,18.68858,-11126.09,-25183.594)">
        <path
           id="path6838"
           d="m 609.3107,1348.6868 c 1.5798,0.2053 2.8132,1.9242 2.8132,3.999 0,1.149 -0.3936,2.1749 -0.9997,2.9061 3.2855,0.6182 4.5013,5.3841 3.5339,10.0438 h -2.2785 l -0.6045,8.1142 h -5.7892 l -0.5347,-8.1142 h -2.1622 c -0.8532,-4.5376 -0.0783,-9.5337 3.5107,-10.0903 -0.5801,-0.7278 -0.9532,-1.739 -0.9532,-2.8596 0,-2.213 1.4086,-3.999 3.1387,-3.999 0.108,0 0.2202,-0.016 0.3255,0 z"
           inkscape:connector-curvature="0"
           style="fill-rule:evenodd;stroke:#ffffff;stroke-dasharray:1, 1" />
        <path
           id="path6840"
           d="m 597.7341,1356.3305 h 3.6946"
           inkscape:connector-curvature="0"
           style="fill:none;stroke:#000000" />
        <path
           id="path6842"
           d="m 597.7341,1358.282 h 3.6946"
           inkscape:connector-curvature="0"
           style="fill:none;stroke:#000000" />
        <path
           id="path6844"
           d="m 616.6957,1354.9597 c 1.2401,0.2258 1.9399,0.6057 1.6921,2.0186 0.4226,-1.0251 0.7635,-1.5447 2.4578,-0.9653"
           inkscape:connector-curvature="0" />
        <path
           id="path6846"
           d="m 609.0399,1372.7822 v -5.8937"
           inkscape:connector-curvature="0"
           style="fill:none;stroke:#ffffff;stroke-dasharray:1, 1" />
      </g>
    </g>
    <g
       id="g7036"
       transform="matrix(0.03906249,0,0,0.03906249,80.000007,776.36218)">
      <path
         id="path7022"
         d="M 0,0 H 512 V 512 H 0 z"
         inkscape:connector-curvature="0" />
      <g
         id="g7024"
         transform="matrix(15,0,0,15,16,-3824)">
        <use
           id="use7026"
           transform="translate(36,252)"
           height="1052.3621"
           width="744.09399"
           x="0"
           y="0" />
        <path
           id="path7028"
           d="m 16,256 c 1.6667,1.6 6.6667,4.8 10,4.8 0,1.6 0,4.8 0,6.4 0,6.4 -5,16 -10,20.8 -5,-4.8 -10,-14.4 -10,-20.8 0,-1.6 0,-4.8 0,-6.4 3.3333,0 8.3333,-3.2 10,-4.8 z"
           inkscape:connector-curvature="0"
           style="fill:#ffffff" />
      </g>
    </g>
    <g
       id="g7143"
       transform="matrix(0.03906249,0,0,0.03906249,120,816.36218)">
      <path
         id="path7129"
         d="M 0,0 H 512 V 512 H 0 z"
         inkscape:connector-curvature="0" />
      <g
         id="g7131"
         transform="matrix(15,0,0,15,-3224,-3284)">
        <use
           id="use7133"
           transform="translate(252,216)"
           height="1052.3621"
           width="744.09399"
           x="0"
           y="0" />
        <path
           id="path7135"
           d="m 220,222 c -2.216,0 -4,1.784 -4,4 v 20 c 0,2.216 1.784,4 4,4 h 24 c 2.216,0 4,-1.784 4,-4 v -20 c 0,-2.216 -1.784,-4 -4,-4 h -24 z m 0,4 24,0 0,20 -24,0 0,-20 z m 10,4 0,4 -4,0 0,4 4,0 0,4 4,0 0,-4 4,0 0,-4 -4,0 0,-4 -4,0 z"
           inkscape:connector-curvature="0"
           style="fill:#ffffff" />
      </g>
    </g>
    <g
       id="g3594"
       transform="matrix(0.03906249,0,0,0.0390625,100,836.36218)">
      <path
         id="path3560"
         d="M 0,0 H 512 V 512 H 0 z"
         inkscape:connector-curvature="0" />
      <g
         id="g3562"
         transform="matrix(18.68858,0,0,18.68858,-10447.968,-46287.834)">
        <path
           id="path3564"
           d="m 559.5358,2477.3411 h 26.4314 v 26.4314 h -26.4314 z"
           inkscape:connector-curvature="0"
           style="fill:none;stroke:#000000" />
        <g
           id="g3566"
           transform="matrix(0.86603,0.5,-0.5,0.86603,1321.3467,48.01773)">
          <path
             id="path3568"
             d="m 563.37,2491.337 c 2.1073,-2.1086 2.1052,-5.5294 -0.004,-7.6404"
             inkscape:connector-curvature="0"
             style="fill:none;stroke:#ffffff" />
          <path
             id="path3570"
             d="m 565.4435,2493.3395 c 3.2119,-3.2139 3.2088,-8.4279 -0.007,-11.6454"
             inkscape:connector-curvature="0"
             style="fill:none;stroke:#ffffff" />
          <path
             id="path3572"
             d="m 567.7242,2495.0917 c 4.1785,-4.1809 4.1744,-10.9641 -0.009,-15.1498"
             inkscape:connector-curvature="0"
             style="fill:none;stroke:#ffffff" />
          <path
             id="path3574"
             d="m 561.4004,2489.835 c 1.2788,-1.2796 1.2776,-3.3554 -0.003,-4.6364"
             inkscape:connector-curvature="0"
             style="fill:none;stroke:#ffffff" />
          <path
             id="path3576"
             d="m 570.2016,2497.1244 c 5.2873,-5.288 5.2858,-13.8629 -0.003,-19.1523"
             inkscape:connector-curvature="0"
             style="fill:none;stroke:#ffffff" />
          <path
             id="path3578"
             d="m 573.1935,2499.5273 c 6.6291,-6.6296 6.6275,-17.3799 -0.003,-24.0107"
             inkscape:connector-curvature="0"
             style="fill:none;stroke:#ffffff" />
          <path
             id="path3580"
             d="m 576.2008,2501.8713 c 7.9923,-7.995 7.9878,-20.9618 -0.009,-28.9614"
             inkscape:connector-curvature="0"
             style="fill:none;stroke:#ffffff" />
          <path
             id="path3582"
             transform="matrix(1.1586,-0.66892,0.66892,1.1586,-1751.3628,-11.87964)"
             d="m 562.9486,2481.3728 c 0,0.8594 -0.6967,1.5562 -1.5561,1.5562 -0.8594,0 -1.5562,-0.6968 -1.5562,-1.5562 0,-0.8594 0.6967,-1.5561 1.5562,-1.5561 0.8595,0 1.5561,0.6967 1.5561,1.5561 z"
             inkscape:connector-curvature="0"
             style="fill:#ffffff;stroke:#000000;stroke-width:0.7475" />
        </g>
        <path
           id="path3584"
           d="m 575.2236,2485.0702 c -0.5104,1.448 -0.8101,3.0629 -0.8101,4.557 0,3.2172 1.4101,4.9349 3.3418,5.5359 0.8611,1.9698 0.7956,4.1279 -0.1688,6.0761 -1.0257,0.4528 -1.8623,1.2934 -2.1941,2.5316 h 8.1352 c -0.3369,-1.2573 -1.2003,-2.1183 -2.2279,-2.5654 -0.9487,-1.9408 -0.9937,-4.0829 -0.135,-6.0423 1.9414,-0.592 3.3418,-2.3014 3.3418,-5.5359 0,-1.4941 -0.3335,-3.1091 -0.8439,-4.557 h -8.439 z"
           inkscape:connector-curvature="0"
           style="fill:#ffffff;stroke:#000000" />
        <path
           id="path3586"
           d="m 579.5372,2484.9199 -1.168,3.3519 1.7267,1.0156 -1.2188,3.5548 3.0471,-3.9611 -1.879,-1.2189 1.5743,-2.7424"
           inkscape:connector-curvature="0" />
      </g>
    </g>
    <g
       id="g4421"
       transform="matrix(0.0390625,0,0,0.0390625,60,836.36218)">
      <path
         id="path4404"
         d="M 0,0 H 512 V 512 H 0 z"
         inkscape:connector-curvature="0" />
      <g
         id="g4406"
         transform="matrix(18.68858,0,0,18.68858,-5676.7659,-4787.1119)">
        <path
           id="path4408"
           d="m 305.141,261.3009 c 3.7855,-1.9047 6.748,-0.8725 8.3978,2.0859 -0.4917,-1.722 -0.831,-3.2735 0.8218,-2.3192 5.3308,3.0777 4.4264,9.3748 4.985,15.4182 0.3462,3.745 3.9266,6.0924 6.7756,5.3778 2.7695,-0.6946 4.8113,-4.1758 3.3577,-7.2983 -2.1127,-4.5386 -5.6844,-8.0423 -9.0744,-11.9772 -1.4351,-1.6658 2.01,-0.9095 4.6929,0.3371 -4.5441,-5.213 -15.7158,-8.9184 -19.9565,-1.6242 z"
           inkscape:connector-curvature="0"
           style="fill:#ffffff" />
        <path
           id="path4410-2"
           transform="matrix(0.86201,0.11098,0.06155,0.70635,-304.5583,-168.10317)"
           d="m 683.75,509.2059 c 0,1.6741 -0.7136,3.0312 -1.5938,3.0312 -0.8802,0 -1.5938,-1.3571 -1.5938,-3.0312 0,-1.6741 0.7136,-3.0312 1.5938,-3.0312 0.8802,0 1.5938,1.3571 1.5938,3.0312 z"
           inkscape:connector-curvature="0"
           style="fill:#ffffff" />
        <path
           id="path4412-4"
           d="m 318.6409,264.4348 c 2.3375,3.0171 1.938,8.6038 1.8466,10.8811 -0.0673,1.6765 0.8685,3.6452 2.1464,4.4416 2.8321,1.765 4.9182,0.004 6.0245,-1.9237 -1.4481,1.7066 -3.3736,1.6731 -4.9633,0.2543 -1.0001,-0.8926 -1.7034,-2.6431 -1.6807,-4.1295 0.0621,-4.0855 -1.2348,-7.244 -3.3735,-9.5238 z"
           inkscape:connector-curvature="0" />
      </g>
    </g>
    <g
       id="g6601"
       transform="matrix(0.0390625,0,0,0.0390625,0,836.36218)">
      <path
         id="path6585"
         d="M 0,0 H 512 V 512 H 0 z"
         inkscape:connector-curvature="0" />
      <g
         id="g6587"
         transform="matrix(18.68858,0,0,18.68858,5787.3366,-2859.1091)">
        <path
           id="path6589"
           d="m -291.5666,174.6735 -10.8085,-15.2289 16.2881,13.1156 2.5205,6.3196 -8,-4.2063 z"
           inkscape:connector-curvature="0"
           style="fill:#ffffff;fill-rule:evenodd" />
        <path
           id="path6591"
           d="m -286.659,163.7278 -2.5025,-3.6581 -13.4005,-2.8871 10.7468,6.4179 5.1562,0.1273 z"
           inkscape:connector-curvature="0"
           style="fill:#ffffff;fill-rule:evenodd" />
        <path
           id="path6593"
           d="m -297.5217,170.3317 -1.3195,4.1098 -6.1091,-5.3689 -3.0704,-14.1565 10.499,15.4157 z"
           inkscape:connector-curvature="0"
           style="fill:#ffffff;fill-rule:evenodd" />
      </g>
    </g>
    <g
       id="g4756"
       transform="matrix(0.0390625,0,0,0.0390625,20,836.36218)">
      <path
         id="path4656"
         d="M 0,0 H 512 V 512 H 0 z"
         inkscape:connector-curvature="0" />
      <g
         id="g4658"
         style="fill:#ffffff">
        <g
           id="g4660"
           style="fill-rule:evenodd">
          <g
             id="g4662"
             transform="matrix(18.68858,0,0,18.68858,-4992.9223,-21124.447)">
            <path
               id="path4664"
               d="m 293.7571,1131.4362 v 3.693 c -4.5782,0.043 -5.6945,2.7647 -3.6615,4.4618 4.5268,3.7791 1.2992,6.1801 -5.6592,5.9319 5.8844,-3.0818 2.6663,-5.3762 -2.6653,-5.8789 -9.0548,-0.8539 -9.1226,-5.2549 -2.2118,-8.2078 h 14.1979 z"
               inkscape:connector-curvature="0" />
            <path
               id="path4666"
               d="m 282.9042,1138.253 -1.5381,1.329 c 3.7337,0.4408 4.6535,2.4108 4.0447,4.627 3.1034,-2.5882 0.0179,-4.9422 -2.5066,-5.956 z"
               inkscape:connector-curvature="0" />
          </g>
          <g
             id="g4668"
             transform="matrix(18.68858,0,0,18.68858,-4992.9223,-21124.447)"
             style="stroke:#000000">
            <path
               id="path4670"
               d="m 278.8701,1150.1882 c 3.658,7.8717 -6.1805,10.8601 -3.695,-0.2927"
               inkscape:connector-curvature="0" />
            <path
               id="path4672"
               d="m 280.2367,1148.9581 c 7.6329,6.2874 2.917,13.6368 -2.6971,1.3396"
               inkscape:connector-curvature="0" />
            <path
               id="path4674"
               d="m 276.4909,1151.2695 c -0.5893,5.8018 -6.891,5.9776 -5.3862,1.9984 -4.5206,0.3368 -5.1943,-3.7955 4.9402,-4.9768"
               inkscape:connector-curvature="0" />
            <path
               id="path4676"
               d="m 280.3418,1147.7412 c 4.8532,-3.5649 7.6881,-0.4297 6.1005,1.192 3.5242,2.0218 1.8119,5.5023 -7.2033,1.61"
               inkscape:connector-curvature="0" />
            <path
               id="path4678"
               d="m 276.5026,1149.8016 c -9.711,0.2426 -11.4468,-8.5436 0.9796,-2.8235"
               inkscape:connector-curvature="0" />
            <path
               id="path4680"
               d="m 278.3696,1146.0517 c 3.1277,-6.7264 10.9852,-3.3161 1.9979,2.141"
               inkscape:connector-curvature="0" />
            <path
               id="path4682"
               d="m 276.8165,1148.4402 c -4.9526,-2.7741 -5.1869,-7.5222 -1.7091,-6.2366 1.9213,-2.0796 5.4996,-1.6113 4.0347,5.5963"
               inkscape:connector-curvature="0" />
          </g>
        </g>
        <g
           id="g4684"
           transform="matrix(18.68858,0,0,18.68858,-4992.9223,-21124.447)">
          <path
             id="path4686"
             transform="matrix(0.87522,0,0,0.87522,32.87656,142.97556)"
             d="m 283.2526,1148.7667 c 0,2.0352 -1.6498,3.685 -3.6849,3.685 -2.0351,0 -3.6849,-1.6498 -3.6849,-3.685 0,-2.0352 1.6498,-3.6849 3.6849,-3.6849 2.0351,0 3.6849,1.6498 3.6849,3.6849 z"
             inkscape:connector-curvature="0"
             style="stroke:#000000;stroke-width:1.14300001" />
        </g>
      </g>
      <g
         id="g4688"
         transform="matrix(18.68858,0,0,18.68858,-4992.9223,-21124.447)"
         style="fill-rule:evenodd">
        <path
           id="path4690"
           d="m 275.3409,1146.2469 1.6528,1.4089 -0.271,-2.276"
           inkscape:connector-curvature="0" />
        <path
           id="path4692"
           d="m 278.6863,1145.5879 -0.475,1.9951 1.9169,-1.2319"
           inkscape:connector-curvature="0" />
        <path
           id="path4694"
           d="m 280.5916,1148.1153 -1.9653,0.5861 2.0253,1.0442"
           inkscape:connector-curvature="0" />
        <path
           id="path4696"
           d="m 278.4838,1151.2861 -0.9542,-2.1494 -0.6649,2.2151"
           inkscape:connector-curvature="0" />
        <path
           id="path4698"
           d="m 274.9026,1149.8733 1.7737,-1.2916 -2.2537,-0.2677"
           inkscape:connector-curvature="0" />
      </g>
      <g
         id="g4700"
         transform="matrix(18.68858,0,0,18.68858,-4992.9223,-21124.447)"
         style="fill:#ffffff">
        <path
           id="path4702"
           transform="translate(-19.0666,-10.9548)"
           d="m 295.8519,1143.9166 c 0,0.3292 -0.2669,0.5961 -0.5961,0.5961 -0.3292,0 -0.5961,-0.2669 -0.5961,-0.5961 0,-0.3292 0.2669,-0.5961 0.5961,-0.5961 0.3292,0 0.5961,0.2669 0.5961,0.5961 z"
           inkscape:connector-curvature="0" />
        <path
           id="path4704"
           transform="translate(-2.772,-7.0625)"
           d="m 295.8519,1143.9166 c 0,0.3292 -0.2669,0.5961 -0.5961,0.5961 -0.3292,0 -0.5961,-0.2669 -0.5961,-0.5961 0,-0.3292 0.2669,-0.5961 0.5961,-0.5961 0.3292,0 0.5961,0.2669 0.5961,0.5961 z"
           inkscape:connector-curvature="0" />
        <path
           id="path4706"
           transform="translate(-21.5097,-6.5644)"
           d="m 295.8519,1143.9166 c 0,0.3292 -0.2669,0.5961 -0.5961,0.5961 -0.3292,0 -0.5961,-0.2669 -0.5961,-0.5961 0,-0.3292 0.2669,-0.5961 0.5961,-0.5961 0.3292,0 0.5961,0.2669 0.5961,0.5961 z"
           inkscape:connector-curvature="0" />
        <path
           id="path4708"
           transform="matrix(1.41671,0,0,1.41671,-141.11677,-481.92409)"
           d="m 295.8519,1143.9166 c 0,0.3292 -0.2669,0.5961 -0.5961,0.5961 -0.3292,0 -0.5961,-0.2669 -0.5961,-0.5961 0,-0.3292 0.2669,-0.5961 0.5961,-0.5961 0.3292,0 0.5961,0.2669 0.5961,0.5961 z"
           inkscape:connector-curvature="0" />
        <path
           id="path4710"
           transform="translate(-4.5347,-6.2195)"
           d="m 295.8519,1143.9166 c 0,0.3292 -0.2669,0.5961 -0.5961,0.5961 -0.3292,0 -0.5961,-0.2669 -0.5961,-0.5961 0,-0.3292 0.2669,-0.5961 0.5961,-0.5961 0.3292,0 0.5961,0.2669 0.5961,0.5961 z"
           inkscape:connector-curvature="0" />
        <path
           id="path4712"
           transform="translate(-14.8806,-3.001)"
           d="m 295.8519,1143.9166 c 0,0.3292 -0.2669,0.5961 -0.5961,0.5961 -0.3292,0 -0.5961,-0.2669 -0.5961,-0.5961 0,-0.3292 0.2669,-0.5961 0.5961,-0.5961 0.3292,0 0.5961,0.2669 0.5961,0.5961 z"
           inkscape:connector-curvature="0" />
        <path
           id="path4714"
           transform="matrix(1.32055,0,0,1.32055,-96.98014,-372.86036)"
           d="m 295.8519,1143.9166 c 0,0.3292 -0.2669,0.5961 -0.5961,0.5961 -0.3292,0 -0.5961,-0.2669 -0.5961,-0.5961 0,-0.3292 0.2669,-0.5961 0.5961,-0.5961 0.3292,0 0.5961,0.2669 0.5961,0.5961 z"
           inkscape:connector-curvature="0" />
        <path
           id="path4716"
           transform="matrix(1.27199,0,0,1.27199,-102.15292,-320.76024)"
           d="m 295.8519,1143.9166 c 0,0.3292 -0.2669,0.5961 -0.5961,0.5961 -0.3292,0 -0.5961,-0.2669 -0.5961,-0.5961 0,-0.3292 0.2669,-0.5961 0.5961,-0.5961 0.3292,0 0.5961,0.2669 0.5961,0.5961 z"
           inkscape:connector-curvature="0" />
        <path
           id="path4718"
           transform="translate(-21.1429,-10.3258)"
           d="m 295.8519,1143.9166 c 0,0.3292 -0.2669,0.5961 -0.5961,0.5961 -0.3292,0 -0.5961,-0.2669 -0.5961,-0.5961 0,-0.3292 0.2669,-0.5961 0.5961,-0.5961 0.3292,0 0.5961,0.2669 0.5961,0.5961 z"
           inkscape:connector-curvature="0" />
        <path
           id="path4720"
           transform="translate(-4.173,-8.2721)"
           d="m 295.8519,1143.9166 c 0,0.3292 -0.2669,0.5961 -0.5961,0.5961 -0.3292,0 -0.5961,-0.2669 -0.5961,-0.5961 0,-0.3292 0.2669,-0.5961 0.5961,-0.5961 0.3292,0 0.5961,0.2669 0.5961,0.5961 z"
           inkscape:connector-curvature="0" />
      </g>
      <g
         id="g4722"
         transform="matrix(18.68858,0,0,18.68858,-4992.9223,-21124.447)"
         style="fill-rule:evenodd">
        <path
           id="path4724"
           d="m 293.9507,1133.1136 c -5.9356,-0.1928 -14.4441,1.5974 -6.6112,5.5871 -12.3447,-3.8387 -3.7903,-5.9363 6.6876,-6.3925"
           inkscape:connector-curvature="0" />
        <path
           id="path4726"
           d="m 282.1487,1138.1808 c -4.2907,-0.6844 -4.0531,-3.5905 -2.4771,-4.882 -4.6106,0.7791 -2.8646,6.0505 2.4771,4.882 z"
           inkscape:connector-curvature="0" />
      </g>
      <g
         id="g4728"
         transform="matrix(18.68858,0,0,18.68858,-4992.9223,-21124.447)"
         style="fill:#ffffff">
        <path
           id="path4730"
           transform="translate(-17.9543,-8.0559)"
           d="m 295.8519,1143.9166 c 0,0.3292 -0.2669,0.5961 -0.5961,0.5961 -0.3292,0 -0.5961,-0.2669 -0.5961,-0.5961 0,-0.3292 0.2669,-0.5961 0.5961,-0.5961 0.3292,0 0.5961,0.2669 0.5961,0.5961 z"
           inkscape:connector-curvature="0" />
        <path
           id="path4732"
           transform="translate(-12.658,-9.7313)"
           d="m 295.8519,1143.9166 c 0,0.3292 -0.2669,0.5961 -0.5961,0.5961 -0.3292,0 -0.5961,-0.2669 -0.5961,-0.5961 0,-0.3292 0.2669,-0.5961 0.5961,-0.5961 0.3292,0 0.5961,0.2669 0.5961,0.5961 z"
           inkscape:connector-curvature="0" />
      </g>
      <g
         id="g4734"
         transform="matrix(18.68858,0,0,18.68858,-4992.9223,-21124.447)">
        <path
           id="path4736"
           d="m 283.7698,1136.834 c 4.3622,2.2134 6.5791,1.1307 8.4921,4.5164"
           inkscape:connector-curvature="0"
           style="fill:none;stroke:#000000" />
      </g>
      <g
         id="g4738"
         transform="matrix(18.68858,0,0,18.68858,-4992.9223,-21124.447)"
         style="fill:#ffffff">
        <path
           id="path4740"
           transform="translate(-3.4389,-2.0987)"
           d="m 295.8519,1143.9166 c 0,0.3292 -0.2669,0.5961 -0.5961,0.5961 -0.3292,0 -0.5961,-0.2669 -0.5961,-0.5961 0,-0.3292 0.2669,-0.5961 0.5961,-0.5961 0.3292,0 0.5961,0.2669 0.5961,0.5961 z"
           inkscape:connector-curvature="0" />
        <path
           id="path4742"
           transform="translate(-10.8971,-7.3283)"
           d="m 295.8519,1143.9166 c 0,0.3292 -0.2669,0.5961 -0.5961,0.5961 -0.3292,0 -0.5961,-0.2669 -0.5961,-0.5961 0,-0.3292 0.2669,-0.5961 0.5961,-0.5961 0.3292,0 0.5961,0.2669 0.5961,0.5961 z"
           inkscape:connector-curvature="0" />
        <path
           id="path4744"
           transform="translate(-3.0248,1.8433)"
           d="m 295.8519,1143.9166 c 0,0.3292 -0.2669,0.5961 -0.5961,0.5961 -0.3292,0 -0.5961,-0.2669 -0.5961,-0.5961 0,-0.3292 0.2669,-0.5961 0.5961,-0.5961 0.3292,0 0.5961,0.2669 0.5961,0.5961 z"
           inkscape:connector-curvature="0" />
      </g>
      <g
         id="g4746"
         transform="matrix(18.68858,0,0,18.68858,-4992.9223,-21124.447)">
        <path
           id="path4748"
           d="m 285.2348,1145.6413 c 4.257,-0.4828 4.9664,-2.533 3.8981,-3.4442 4.0881,0.5496 0.7529,4.2686 -3.8981,3.4442 z"
           inkscape:connector-curvature="0"
           style="fill-rule:evenodd" />
      </g>
    </g>
    <g
       id="g5301"
       transform="matrix(0.0390625,0,0,0.0390625,40,836.36218)">
      <path
         id="path5285"
         d="M 0,0 H 512 V 512 H 0 z"
         inkscape:connector-curvature="0" />
      <g
         id="g5287"
         transform="matrix(18.68858,0,0,18.68858,5157.9477,-336.48639)">
        <path
           id="path5289"
           d="m -249.464,37.0019 c -6.4713,-9.3914 -14.408,-13.8252 -16.4752,-17.82 4.8034,-0.132 14.3995,9.195 16.4752,17.82 z"
           inkscape:connector-curvature="0"
           style="fill:#ffffff;fill-rule:evenodd" />
        <path
           id="path5291"
           d="m -251.4193,41.7742 c -6.7739,-8.8874 -16.8287,-15.0155 -20.1062,-20.2709 4.8034,-0.132 18.0305,11.6459 20.1062,20.2709 z"
           inkscape:connector-curvature="0"
           style="fill:#ffffff;fill-rule:evenodd" />
        <path
           id="path5293"
           d="m -256.1294,44.3216 c -8.5894,-10.1641 -15.8201,-13.7942 -18.9967,-18.4668 4.8034,-0.132 16.921,9.8418 18.9967,18.4668 z"
           inkscape:connector-curvature="0"
           style="fill:#ffffff;fill-rule:evenodd" />
      </g>
    </g>
    <g
       id="g5425"
       transform="matrix(0.0390625,0,0,0.0389813,140,836.36218)">
      <path
         id="path5403"
         d="M 0,0 H 512 V 512 H 0 z"
         inkscape:connector-curvature="0" />
      <g
         id="g5405"
         transform="matrix(18.68858,0,0,18.68858,-4642.7866,-1591.7329)">
        <path
           id="path5407"
           d="m 250.8014,93.2799 c -2.5838,5.0909 -1.5643,10.0347 3.2923,11.9701 3.6607,1.4587 8.4744,-1.2543 6.9375,-5.5312 -0.6915,4.5889 -7.3438,2.7317 -6.6022,-1.4388 0.7673,-4.3151 6.8974,-5.626 9.3791,-1.3277 1.8857,3.2662 0.1437,6.5391 -2.8706,8.8602 -2.5393,1.9553 -6.6994,2.4054 -11.7812,0.7812 v 5.5312 h 18.5312 c 4.958,-3.2431 5.0977,-9.5167 4.0625,-14.875 -0.9748,-5.046 -5.5232,-8.612 -10.4688,-8.8125 -4.3999,-0.1784 -8.5904,1.1196 -10.4799,4.8424 z"
           inkscape:connector-curvature="0"
           style="fill:#ffffff;fill-rule:evenodd;stroke:#000000" />
        <path
           id="path5409-7"
           d="m 264.7552,89.8439 c 0.4111,1.7273 1.7819,3.9381 3.6487,3.8635 1.9191,-2.2138 0.7048,-5.7454 -2.8454,-7.1987 1.3704,1.8751 0.7908,3.6391 -0.8033,3.3351 z"
           inkscape:connector-curvature="0"
           style="fill:#ffffff;fill-rule:evenodd" />
        <path
           id="path5411-7"
           d="m 257.3736,89.2383 c 1.2558,0.9692 3.3643,1.7478 4.4286,0.6751 -0.1578,-2.5802 -2.9471,-4.3575 -5.9054,-3.4202 1.9116,0.5467 2.6009,2.0832 1.4768,2.7451 z"
           inkscape:connector-curvature="0"
           style="fill:#ffffff;fill-rule:evenodd" />
        <path
           id="path5413-2"
           d="m 270.5919,95.4189 c -0.9777,1.6331 -1.3389,4.3299 0.2016,5.6133 3.1976,-0.3359 4.8994,-3.9433 3.1746,-7.6191 -0.3267,2.4366 -2.3384,3.3864 -3.3762,2.0058 z"
           inkscape:connector-curvature="0"
           style="fill:#ffffff;fill-rule:evenodd" />
        <path
           id="path5415-6"
           d="m 271.0433,105.5562 c -1.8373,0.8132 -3.9717,2.762 -3.4084,4.7533 2.983,1.5878 6.6433,-0.4765 7.3659,-4.606 -1.757,1.8763 -3.8899,1.6321 -3.9575,-0.1473 z"
           inkscape:connector-curvature="0"
           style="fill:#ffffff;fill-rule:evenodd" />
        <path
           id="path5417-2"
           d="m 251.8907,92.5521 c 1.2697,-0.2007 2.674,-0.885 2.6845,-2.1794 -1.5426,-1.434 -4.2139,-1.0467 -5.3932,1.3375 1.4103,-0.8567 2.9848,-0.2456 2.7087,0.8419 z"
           inkscape:connector-curvature="0"
           style="fill:#ffffff;fill-rule:evenodd" />
      </g>
    </g>
    <g
       id="g5614"
       transform="matrix(0.03884003,0,0,0.03897805,120.1139,836.40541)">
      <path
         id="path5584"
         d="M 0,0 H 512 V 512 H 0 z"
         inkscape:connector-curvature="0" />
      <g
         id="g5586"
         transform="matrix(18.68858,0,0,18.68858,-8396.6046,-27902.129)">
        <path
           id="path5588"
           d="m 452.4375,1493.5312 c 1.0564,2.8265 2.9752,5.4837 5.6875,7.25 0.0315,-2.6971 -0.0266,-4.8963 0.4833,-7.25 z m 7.9375,0 c 0.9848,2.0205 1.287,4.1725 2.0625,6.1876 1.9358,-2.196 2.9517,-4.1606 3.1028,-6.1876 z m 7.9292,0 c -1.0567,2.0893 -1.6762,4.7467 -2.1792,7.8126 3.882,-1.9351 6.9592,-4.3428 8.2188,-7.8126 z m 8.0396,3.1563 c -2.4499,0.9741 -4.819,2.9746 -6.3438,5.9375 2.3566,0.036 4.5124,-0.2416 6.3438,-1.0312 z m -26.4375,-0.8735 0,6.6548 c 1.7157,0.7757 3.7375,1.2001 5.9375,1.0937 -1.5702,-2.8168 -3.967,-5.7219 -5.9375,-7.7485 z m 26.4375,9.2172 c -2.0469,0.2022 -4.1276,1.0942 -6.2188,2.3438 2.0251,1.3036 4.1895,1.9474 6.2188,2.0625 z m -26.4375,0.2188 0,4.0625 c 1.6663,-0.3872 3.3695,-0.9887 5,-1.9375 -1.6781,-1.0028 -3.3471,-1.7563 -5,-2.125 z m 0,6.875 0,5.0312 c 2.515,-1.0212 4.3954,-3.271 5.9688,-6.0937 -2.0376,0.1657 -4.3047,0.6323 -5.9688,1.0625 z m 18.5076,-0.6392 c 2.4032,3.305 4.7832,5.1109 7.9299,7.1114 v -4.8859 c -2.7702,-1.4801 -4.761,-1.8464 -7.9299,-2.2255 z m -8.7264,1.6394 c -3.4939,1.6308 -6.0859,4.2085 -7.5,6.8438 h 4.9062 c 1.3476,-1.9291 2.1208,-4.2744 2.5938,-6.8438 z m 6.5625,0.8438 c -0.1078,2.2268 0.3311,4.2709 1.125,6 h 6.5806 c -2.5463,-2.1687 -5.1229,-4.0976 -7.7056,-6 z m -3.8125,0.9687 c -1.0559,1.6403 -1.6761,3.3555 -1.9375,5.0313 h 4.0625 c -0.3646,-1.6578 -1.118,-3.3464 -2.125,-5.0313 z"
           inkscape:connector-curvature="0"
           style="fill:#ffffff" />
      </g>
      <g
         id="g5590"
         transform="matrix(18.68858,0,0,18.68858,-8369.034,-27880.466)"
         style="fill:#ffffff;stroke:#000000">
        <path
           id="path5592"
           transform="matrix(-0.25881905,0.96592583,-0.96592583,-0.25881905,0,0)"
           d="m 1336.29,-836.238 h 3.28 v 7.488 h -3.28 z"
           inkscape:connector-curvature="0" />
        <path
           id="path5594"
           transform="matrix(0.96592583,0.25881905,-0.25881905,0.96592583,0,0)"
           d="m 830.958,1329.83 h 2.702 v 7.63 h -2.702 z"
           inkscape:connector-curvature="0" />
        <path
           id="path5596-0"
           transform="matrix(0.96592583,0.25881905,-0.25881905,0.96592583,0,0)"
           d="m 833.66,1329.83 h 2.701 v 7.63 h -2.701 z"
           inkscape:connector-curvature="0" />
        <path
           id="path5598"
           transform="matrix(0.96592583,0.25881905,-0.25881905,0.96592583,0,0)"
           d="m 836.361,1329.83 h 2.701 v 7.63 h -2.701 z"
           inkscape:connector-curvature="0" />
        <path
           id="path5600"
           transform="matrix(0.96592583,0.25881905,-0.25881905,0.96592583,0,0)"
           d="m 839.062,1329.83 h 2.701 v 7.63 h -2.701 z"
           inkscape:connector-curvature="0" />
      </g>
      <g
         id="g5602"
         transform="matrix(18.68858,0,0,18.68858,-8396.6046,-27902.129)"
         style="fill:none">
        <path
           id="path5604"
           d="m 449.912,1493.53 h 26.432 v 26.43 h -26.432 z"
           inkscape:connector-curvature="0"
           style="stroke:#000000" />
        <path
           id="path5606"
           transform="matrix(1.1087,0,0,1.1087,-49.76731,-164.62869)"
           d="m 472.4011,1507.7977 c 0,5.3542 -4.3404,9.6946 -9.6946,9.6946 -5.3542,0 -9.6946,-4.3404 -9.6946,-9.6946 0,-5.3542 4.3404,-9.6946 9.6946,-9.6946 5.3542,0 9.6946,4.3404 9.6946,9.6946 z"
           inkscape:connector-curvature="0"
           style="stroke:#ffffff;stroke-width:0.90200001" />
      </g>
    </g>
    <g
       id="g4427"
       transform="matrix(0.0390625,0,0,0.0390625,0,796.36218)">
      <path
         id="path4399"
         d="M 0,0 H 512 V 512 H 0 z"
         inkscape:connector-curvature="0" />
      <g
         id="g4401"
         transform="matrix(18.68858,0,0,18.68858,-9080.3348,-26544.87)">
        <g
           id="g4403"
           transform="matrix(1.13377,0,0,1.13392,-67.41537,-194.86783)">
          <path
             id="path4405"
             d="m 500.1562,1436.6645 c -3.4131,0 -6.1875,-2.7745 -6.1875,-6.1876 0,-1.5405 0.5676,-2.949 1.5,-4.0312 -0.4092,0.7532 -0.625,1.6138 -0.625,2.5312 0,2.9359 2.3767,5.3126 5.3125,5.3126 2.9358,0 5.3125,-2.3767 5.3125,-5.3126 0,-0.9174 -0.2471,-1.778 -0.6562,-2.5312 0.9341,1.0827 1.5312,2.4891 1.5312,4.0312 0,3.4131 -2.7744,6.1876 -6.1875,6.1876 z"
             inkscape:connector-curvature="0"
             style="fill:#ffffff" />
          <path
             id="path4407"
             d="m 500.1749,1436.6264 c -1.7065,-2.9558 -5.4966,-3.9713 -8.4524,-2.2647 -1.3341,0.7701 -2.2701,1.966 -2.7411,3.3146 0.4476,-0.731 1.0851,-1.3482 1.8795,-1.8069 2.5426,-1.4679 5.7893,-0.5981 7.2571,1.9445 1.4678,2.5426 0.598,5.7891 -1.9445,7.257 -0.7946,0.4588 -1.6634,0.6751 -2.5202,0.6972 1.4047,0.2677 2.9212,0.082 4.2567,-0.6894 2.9558,-1.7066 3.9714,-5.4965 2.2649,-8.4523 z"
             inkscape:connector-curvature="0"
             style="fill:#ffffff" />
          <path
             id="path4409"
             d="m 500.1189,1436.6277 c 1.7066,-2.9558 5.4966,-3.9713 8.4524,-2.2647 1.3341,0.7702 2.2701,1.966 2.741,3.3147 -0.4475,-0.7311 -1.0849,-1.3483 -1.8793,-1.8072 -2.5425,-1.468 -5.7891,-0.598 -7.2569,1.9444 -1.4678,2.5424 -0.598,5.7891 1.9446,7.2571 0.7944,0.4587 1.6631,0.675 2.5203,0.697 -1.4048,0.2677 -2.9214,0.082 -4.2568,-0.6895 -2.9559,-1.7065 -3.9714,-5.4966 -2.265,-8.4523 z"
             inkscape:connector-curvature="0"
             style="fill:#ffffff" />
        </g>
        <path
           id="path4411"
           transform="matrix(2.95341,0,0,2.9538,-975.91165,-2802.821)"
           d="m 501.7217,1434.4406 c 0,1.1714 -0.9496,2.121 -2.121,2.121 -1.1714,0 -2.1211,-0.9496 -2.1211,-2.121 0,-1.1714 0.9496,-2.1211 2.1211,-2.1211 1.1715,0 2.121,0.9496 2.121,2.1211 z"
           inkscape:connector-curvature="0"
           style="fill:none;stroke:#ffffff;stroke-width:0.33860001" />
        <path
           id="path4413"
           transform="matrix(1.36053,0,0,1.36071,-178.88501,-516.49522)"
           d="m 500.36,1433.524 c 0,0.8678 -0.7034,1.5712 -1.5712,1.5712 -0.8678,0 -1.5712,-0.7034 -1.5712,-1.5712 0,-0.8678 0.7034,-1.5711 1.5712,-1.5711 0.8678,0 1.5712,0.7034 1.5712,1.5711 z"
           inkscape:connector-curvature="0"
           style="stroke:#ffffff;stroke-width:0.73500001" />
        <path
           id="path4415"
           d="m 499.0468,1433.8149 4.8974,2.6664"
           inkscape:connector-curvature="0"
           style="fill:none;stroke:#000000" />
        <path
           id="path4417"
           d="m 499.6788,1429.0933 -9e-5,5.1845"
           inkscape:connector-curvature="0"
           style="fill:none;stroke:#000000" />
        <path
           id="path4419"
           d="m 499.9818,1434.0194 -4.5685,2.4618"
           inkscape:connector-curvature="0"
           style="fill:none;stroke:#000000" />
      </g>
    </g>
    <g
       id="g5299"
       transform="matrix(0.039024,0,0,0.03904331,20.019712,796.37201)">
      <path
         id="path5267"
         d="M 0,0 H 512 V 512 H 0 z"
         inkscape:connector-curvature="0" />
      <g
         id="g5269"
         transform="matrix(18.68858,0,0,18.68858,-2272.0759,-19763.177)">
        <path
           id="path5271"
           d="m 136.6164,1058.1069 c -3.5832,5.1617 -9.0882,9.3536 -13.439,13.6854 0.4548,1.8081 1.8001,4.2616 4.1413,5.4623 l 1.4164,-0.7477 c 1.88,6.6175 10.9958,9.9474 17.2383,6.5624 -4.2655,-2.7824 -7.3788,-7.1248 -8.6976,-11.8689 2.5273,-3.7785 7.2107,-7.0031 11.1782,-8.3522 v -4.7413 h -11.8376 z"
           inkscape:connector-curvature="0"
           style="fill:#ffffff;stroke:#000000" />
        <path
           id="path5273"
           d="m 122.0486,1058.0938 v 4.2812 c 3.6537,1.8743 7.8752,3.3825 13.1388,4.4688 -3.0673,-3.6132 -5.6704,-6.3287 -8.25,-8.75 z"
           inkscape:connector-curvature="0"
           style="fill:#ffffff;fill-rule:evenodd;stroke:#000000" />
        <path
           id="path5275"
           d="m 137.0891,1064.5313 c 3.7395,5.0328 6.5584,7.0372 11.3125,9.5606 v -5.8731 c -3.0126,-1.487 -6.4384,-2.6833 -11.3125,-3.6875 z"
           inkscape:connector-curvature="0"
           style="fill:#ffffff;fill-rule:evenodd;stroke:#000000" />
        <path
           id="path5277"
           d="m 132.8116,1071.8484 c 1.5708,-0.5518 2.9031,-0.9204 4.585,-0.2293"
           inkscape:connector-curvature="0"
           style="fill:none;stroke:#000000" />
        <path
           id="path5279"
           d="m 133.6559,1074.9531 c 1.3745,-0.9395 2.566,-1.6404 4.3694,-1.4082"
           inkscape:connector-curvature="0"
           style="fill:none;stroke:#000000" />
        <path
           id="path5281"
           d="m 141.5777,1079.9601 3.7813,1.1455 -0.3281,3.2134 -3.5156,-0.445 c 1.4716,-0.249 1.3017,-2.6594 0.0625,-3.9139 z"
           inkscape:connector-curvature="0"
           style="fill-rule:evenodd" />
        <path
           id="path5283"
           d="m 125.3789,1069.9957 c 0.3218,2.3946 2.5961,5.3172 5.3606,5.8778 1.0175,4.5314 7.2182,7.6455 12.4054,6.143"
           inkscape:connector-curvature="0"
           style="fill:none;stroke:#000000" />
        <path
           id="path5285-2"
           d="m 134.125,1068.8935 c 1.2986,0.031 2.675,0.2835 3.8438,1.4375"
           inkscape:connector-curvature="0"
           style="fill:none;stroke:#000000" />
        <path
           id="path5287"
           d="m 142.6152,1067.4374 c 1.8111,2.1307 3.1764,2.8285 5.4789,3.5698 v -2.982 c -1.459,-0.4128 -3.1183,-0.6313 -5.4789,-0.5878 z"
           inkscape:connector-curvature="0"
           style="fill-rule:evenodd" />
        <path
           id="path5289-8"
           d="m 129.8098,1063.2503 c -0.4854,-2.5239 -1.4494,-3.9007 -3.3861,-5.1757 l -3.1588,0.1757 c 1.8206,2.2175 3.5211,3.8829 6.5449,5 z"
           inkscape:connector-curvature="0"
           style="fill-rule:evenodd" />
        <path
           id="path5291-8"
           d="m 139.9551,1067.2485 4.9919,6.5027 -1.0599,-4.2497"
           inkscape:connector-curvature="0"
           style="fill:#ffffff" />
      </g>
    </g>
    <g
       id="g4747">
      <path
         id="path5405"
         d="m 140,816.36232 h 19.99999 v 19.96527 H 140 z"
         inkscape:connector-curvature="0" />
      <path
         style="fill:#ffffff"
         inkscape:connector-curvature="0"
         d="m 155.43601,824.07056 c -0.15621,-1.66633 -2.20351,-2.40567 -3.40582,-1.4235 l -1.84819,-4.85542 -2.88961,6.17129 c -1.24046,-1.13181 -2.69482,0.1678 -2.40912,1.50641 -2.13606,-1.33711 -3.67549,1.92671 -2.23323,3.11395 -1.71857,0.67184 -2.16266,4.21273 0.50864,4.74172 -0.35703,0.32388 -0.62514,1.0264 -0.67059,1.3856 l 14.62563,-0.0668 L 157,834.36218 c 1.9448,-0.83739 2.22854,-3.39022 0.48209,-4.77063 3.79185,-1.85808 1.09889,-6.81051 -2.04612,-5.52096 z"
         id="path4649" />
      <path
         inkscape:connector-curvature="0"
         d="m 154,828.36218 c 1.81949,0.51471 2.59419,1.80953 2.61004,3.35415 0.44088,-1.72686 0.23479,-3.48905 -1.72254,-4.30829"
         id="path4657" />
      <path
         inkscape:connector-curvature="0"
         d="m 152,831.36218 c 1.87516,-0.62903 3.75387,1.17986 3.40519,2.92072 2.05139,-1.94934 -1.439,-5.12071 -3.40519,-2.92072 z"
         id="path4659" />
      <g
         id="g5407"
         transform="matrix(0.73002247,0,0,0.72875482,24.539112,-802.45849)">
        <path
           id="path5409"
           transform="matrix(1.15914,0,0,1.15849,-23.30688,-352.79739)"
           d="m 178.9184,2230.8628 c 0,1.3873 -0.6651,2.512 -1.4856,2.512 -0.8205,0 -1.4856,-1.1247 -1.4856,-2.512 0,-1.3873 0.6651,-2.512 1.4856,-2.512 0.8205,0 1.4856,1.1247 1.4856,2.512 z"
           inkscape:connector-curvature="0"
           style="fill:none;stroke:#ffffff;stroke-width:0.86299998" />
        <path
           id="path5411"
           d="m 172.8564,2223.0998 10.1724,5.8698"
           inkscape:connector-curvature="0"
           style="fill:none;stroke:#ffffff" />
        <path
           id="path5413"
           transform="matrix(0.86615,0.49979,-0.50021,0.8659,0,0)"
           d="m 1263.8215,1836.74 h 4.1615 v 14.7744 h -4.1615 z"
           inkscape:connector-curvature="0"
           style="fill:#ffffff;stroke:#000000" />
        <path
           id="path5415"
           transform="matrix(0.86615,0.49979,-0.50021,0.8659,0,0)"
           d="m 1260.7251,1845.8356 h 10.1819 v 16.281 h -10.1819 z"
           inkscape:connector-curvature="0"
           style="fill:#ffffff;stroke:#000000" />
        <path
           id="path5417"
           d="m 175.9795,2225.9671 c -2.9871,-1.7236 -6.5016,-1.2332 -7.8463,1.0947 l -1.7961,3.1091 10.8208,6.244 1.7961,-3.1091 c 1.3448,-2.328 0.0125,-5.6151 -2.9745,-7.3387 z"
           inkscape:connector-curvature="0"
           style="fill:#ffffff;stroke:#000000" />
        <path
           id="path5419"
           d="m 163.6759,2247.2656 c -2.9871,-1.7236 -4.3194,-5.0106 -2.9745,-7.3387 l 1.7961,-3.1091 10.8209,6.2439 -1.7961,3.1092 c -1.3449,2.328 -4.8592,2.8183 -7.8463,1.0947 z"
           inkscape:connector-curvature="0"
           style="fill:#ffffff;stroke:#000000" />
        <path
           id="path5421"
           d="m 167.9394,2231.4736 1.6394,-2.8679"
           inkscape:connector-curvature="0"
           style="fill:none;stroke:#000000" />
        <path
           id="path5423"
           d="m 175.3156,2235.7752 1.6394,-2.8681"
           inkscape:connector-curvature="0"
           style="fill:none;stroke:#000000" />
        <path
           id="path5425"
           d="m 171.4103,2233.4975 1.6393,-2.8678"
           inkscape:connector-curvature="0"
           style="fill:none;stroke:#000000" />
        <path
           id="path5427"
           d="m 162.5533,2240.6031 1.6394,-2.8679"
           inkscape:connector-curvature="0"
           style="fill:none;stroke:#000000" />
        <path
           id="path5429"
           d="m 169.9296,2244.9047 1.6394,-2.8681"
           inkscape:connector-curvature="0"
           style="fill:none;stroke:#000000" />
        <path
           id="path5431"
           d="m 166.0242,2242.627 1.6393,-2.8678"
           inkscape:connector-curvature="0"
           style="fill:none;stroke:#000000" />
      </g>
      <path
         transform="matrix(1.0859649,0,0,1.0333333,-13.472655,774.72072)"
         d="m 158.44271,47.546516 a 0.85999471,1.697358 0 1 1 -1.71999,0 0.85999471,1.697358 0 1 1 1.71999,0 z"
         sodipodi:ry="1.697358"
         sodipodi:rx="0.85999471"
         sodipodi:cy="47.546516"
         sodipodi:cx="157.58272"
         id="path4745"
         style="opacity:1;fill:#000000;fill-opacity:1;fill-rule:nonzero;stroke:none"
         sodipodi:type="arc" />
    </g>
    <g
       id="g5112"
       transform="matrix(0.0390625,0,0,0.0390625,40.029,796.17726)">
      <path
         id="path5080"
         d="M 0,0 H 512 V 512 H 0 z"
         inkscape:connector-curvature="0" />
      <g
         id="g5082"
         transform="matrix(18.68858,0,0,18.68858,-4314.1318,-19762.313)">
        <path
           id="path5084"
           d="m 231.7188,1058.375 v 5.045 l 1.0956,0.762 0.3413,-1.7154 2.7008,1.7779 -1.1693,-4.8085 1.58,0.7497 -0.5438,-1.8107 h -4.0046 z m 6.4062,0 1.0625,2.25 -2.25,2.5 h 2.1995 l 0.25,2.125 1.125,-1.375 0.5568,3.3145 2.0727,-3.036 1.35,1.7487 1.2946,-4.8776 1.8068,1.1294 0.0322,-2.7165 2.5492,1.3075 -0.1621,3.6112 1.522,-2.2362 0.6844,1.1836 3.2191,-3.4388 0.0625,2.3648 1.8125,-2.2812 v -1.5734 h -19.1875 z"
           inkscape:connector-curvature="0"
           style="fill:#ffffff" />
        <path
           id="path5086"
           d="m 249.0312,1075.5 -3.5,4.5625 -0.6562,-2.25 -1.5625,5.1875 -2.6875,-3.625 -0.7812,4.5938 h 13.7812 l -0.3438,-1.8438 -2.8438,1.0625 -0.5,-2.8437 -0.9062,0.7187 V 1075.5 z m -16.0938,0.8125 -1.2188,1.0625 v 6.5938 h 6.9603 l -0.8665,-4.0938 -0.7424,0.8946 -1.3201,-2.8946 -1.7812,2.9063 -1.0312,-4.4688 z"
           inkscape:connector-curvature="0"
           style="fill:#ffffff" />
        <path
           id="path5088"
           d="m 256.0469,1074.8554 -0.1446,1.8804 -4.3031,-0.217 4.1946,3.5437 -2.1335,0.5063 3.6522,1.4464 v -5.641 l -1.2656,-1.5188 z"
           inkscape:connector-curvature="0"
           style="fill:#ffffff" />
        <g
           id="g5090"
           transform="translate(443.8902,33.5392)">
          <path
             id="path5092"
             d="m -187.1454,1034.5978 c 0.0731,8.4268 -4.6737,4.9225 -10.4448,5.5535 1.5636,-5.2925 5.3415,-6.3258 10.4448,-5.5535 z"
             inkscape:connector-curvature="0"
             style="fill-rule:evenodd;stroke:#ffffff" />
          <path
             id="path5094"
             transform="translate(-371.3051,4.3973)"
             d="m 181.7812,1033.7059 c 0,1.2427 -1.0074,2.25 -2.25,2.25 -1.2426,0 -2.25,-1.0073 -2.25,-2.25 0,-1.2427 1.0074,-2.25 2.25,-2.25 1.2426,0 2.25,1.0074 2.25,2.25 z"
             inkscape:connector-curvature="0"
             style="fill:#ffffff" />
        </g>
        <g
           id="g5096"
           transform="matrix(-1,0,0,1,45.76516,33.53925)">
          <path
             id="path5098"
             d="m -186.9245,1034.5978 c 0.0731,8.4268 -4.6737,4.9225 -10.4448,5.5535 1.5636,-5.2925 5.3415,-6.3258 10.4448,-5.5535 z"
             inkscape:connector-curvature="0"
             style="fill-rule:evenodd;stroke:#ffffff" />
          <path
             id="path5100"
             transform="translate(-371.0842,4.3973)"
             d="m 181.7812,1033.7059 c 0,1.2427 -1.0074,2.25 -2.25,2.25 -1.2426,0 -2.25,-1.0073 -2.25,-2.25 0,-1.2427 1.0074,-2.25 2.25,-2.25 1.2426,0 2.25,1.0074 2.25,2.25 z"
             inkscape:connector-curvature="0"
             style="fill:#ffffff" />
        </g>
        <path
           id="path5102"
           d="m 237.3125,1069.3622 v 6.7187"
           inkscape:connector-curvature="0"
           style="fill:none;stroke:#000000" />
        <path
           id="path5104"
           d="m 252.1875,1069.3622 v 6.7187"
           inkscape:connector-curvature="0"
           style="fill:none;stroke:#000000" />
      </g>
    </g>
    <g
       id="g6782"
       transform="matrix(0.0390625,0,0,0.0390625,60.028449,796.40518)">
      <path
         id="path6770"
         d="M 0,0 H 512 V 512 H 0 z"
         inkscape:connector-curvature="0" />
      <g
         id="g6772"
         transform="matrix(18.68858,0,0,18.68858,-2742.3916,-333.52799)">
        <path
           id="path6774"
           d="m 147.944,19.3856 c 5.755,3.6443 11.0773,6.5029 17.2304,7.153 2.1781,0.2301 2.5584,1.8695 1.6948,3.751 -1.419,3.0914 0.8791,7.681 6.0113,10.4591 -0.3201,1.4975 -2.4783,2.7581 -3.8076,2.3154 -1.1067,-2.3098 -2.8307,-4.7482 -4.6984,-4.0867 -3.8202,1.353 -7.7542,1.6407 -10.4254,0.1845 3.5437,-0.4809 6.9172,-1.4231 9.8883,-2.9078 -5.3678,0.8028 -11.7231,0.8235 -14.1314,-1.8713 4.8723,0.1947 8.8215,-0.2996 13.2305,-1.4032 -5.8725,-0.5408 -12.3291,-1.6146 -14.1468,-5.2152 4.333,1.351 10.1436,1.8539 14.0745,1.8813 -6.124,-1.5428 -14.3602,-5.7675 -14.9202,-10.2601 z"
           inkscape:connector-curvature="0"
           style="fill:#ffffff;fill-rule:evenodd" />
      </g>
    </g>
    <g
       id="g7123"
       transform="matrix(0.0390625,0,0,0.03904901,19.805284,816.40212)">
      <path
         id="path7089"
         d="M 0,0 H 512 V 512 H 0 z"
         inkscape:connector-curvature="0" />
      <g
         id="g7091"
         transform="matrix(18.68858,0,0,18.68858,-9766.8113,-40834.029)">
        <g
           id="g7093"
           transform="matrix(1.00482,0.26924,-0.26924,1.00482,592.51692,-152.39854)">
          <path
             id="path7095"
             d="m 530.5378,2188.9279 c -2.8279,1.7219 -4.8057,5.5575 -4.8057,10.0336 0,4.4761 1.9779,8.3117 4.8057,10.0336 h 6.6566 c 2.8279,-1.7219 4.8057,-5.5575 4.8057,-10.0336 0,-4.4761 -1.9779,-8.3117 -4.8057,-10.0336 h -6.6566 z"
             inkscape:connector-curvature="0"
             style="fill:#ffffff;stroke:#000000;stroke-width:0.96130002" />
          <path
             id="path7097"
             d="m 532.7824,2188.6686 c -1.4205,1.7664 -2.4141,5.7011 -2.4141,10.293 0,4.5919 0.9935,8.5265 2.4141,10.293"
             inkscape:connector-curvature="0"
             style="fill:none;stroke:#000000;stroke-width:0.96130002" />
          <path
             id="path7099"
             d="m 527.4211,2191.8327 h 12.9158"
             inkscape:connector-curvature="0"
             style="fill:none;stroke:#000000;stroke-width:0.96130002" />
          <path
             id="path7101"
             d="m 527.2749,2205.5557 h 13.3855"
             inkscape:connector-curvature="0"
             style="fill:none;stroke:#000000;stroke-width:0.96130002" />
          <path
             id="path7103"
             d="m 525.5813,2201.0576 h 16.5013"
             inkscape:connector-curvature="0"
             style="fill:none;stroke:#000000;stroke-width:0.96130002" />
          <path
             id="path7105"
             d="m 525.7093,2196.6357 h 16.239"
             inkscape:connector-curvature="0"
             style="fill:none;stroke:#000000;stroke-width:0.96130002" />
          <path
             id="path7107"
             d="m 534.6811,2188.6686 c 1.4205,1.7664 2.4141,5.7011 2.4141,10.293 0,4.5919 -0.9935,8.5265 -2.4141,10.293"
             inkscape:connector-curvature="0"
             style="fill:none;stroke:#000000;stroke-width:0.96130002" />
        </g>
        <path
           id="path7109"
           d="m 541.9083,2189.384 5.5848,1.4964"
           inkscape:connector-curvature="0"
           style="fill:none;stroke:#ffffff" />
        <path
           id="path7111"
           transform="matrix(0.96592583,0.25881905,-0.25881905,0.96592583,0,0)"
           d="m 1083.2794,1972.5625 h 9.3818 v 3.9818 h -9.3818 z"
           inkscape:connector-curvature="0"
           style="fill:#ffffff;stroke:#000000" />
        <path
           id="path7113"
           transform="matrix(1.0118,0,0,1.0118,-4.61701,-24.84596)"
           d="m 546.6935,2192.165 c 0,1.2803 -0.5793,2.3181 -1.2938,2.3181 -0.7145,0 -1.2938,-1.0378 -1.2938,-2.3181 0,-1.2803 0.5793,-2.3181 1.2938,-2.3181 0.7145,0 1.2938,1.0379 1.2938,2.3181 z"
           inkscape:connector-curvature="0"
           style="stroke:#ffffff;stroke-width:0.98830003" />
        <path
           id="path7115"
           d="m 537.1095,2187.364 c -5.9976,-1.6071 -10.6755,6.0228 -12.3361,12.2204 l 0.6087,3.0741 c 2.9979,-8.9391 7.4326,-13.6186 11.2591,-13.202"
           inkscape:connector-curvature="0"
           style="fill:#ffffff" />
      </g>
    </g>
    <path
       style="fill:#ffffff"
       inkscape:connector-curvature="0"
       d="m 118.8353,817.07749 -1.33488,0.0633 -9.01049,11.04405 -0.0914,0.0198 0.0774,0.0117 -0.15933,0.20756 0.0395,-0.14033 0.0424,-0.0789 6.72364,-10.95101 -1.71844,0.0815 -4.9832,10.68385 2.72776,-10.57689 -1.33489,0.0633 -1.50548,10.7343 -0.0826,0.20391 0.0691,-10.86623 -1.30415,0.0618 1.13789,11.02442 -0.0146,0.0161 -1.78289,-7.4395 0.14196,2.99369 1.62634,4.46196 -0.45092,0.54453 0.46988,-0.46847 0.0154,-7.3e-4 10e-4,0.0307 0.0161,0.0147 7.3e-4,0.0154 0.0649,0.72012 0.005,-0.87723 0.0299,-0.0168 -7.3e-4,-0.0154 0.44064,-0.43635 0.15417,0.008 -0.53416,0.40997 0.68758,-0.41725 10.36829,0.0776 -0.0561,-1.18209 -10.14711,1.01974 0.0446,-0.0328 10.03628,-2.38386 -0.0597,-1.25888 -9.87133,3.59161 9.76941,-5.7409 -0.083,-1.75015 -10.06565,7.60135 -0.19871,0.0248 10.15011,-10.03639 -0.0502,-1.05926 z m 0.59842,12.61943 -10.24822,-1.43734 6.27434,1.62578 3.97394,-0.18844 z m -11.14981,-1.31768 -0.011,0.0928 -0.0584,0.0643 0.0132,-0.0468 0.0562,-0.1104 z"
       id="path7156" />
    <rect
       style="fill:#000000;fill-opacity:1;fill-rule:nonzero;stroke:none"
       id="rect7154"
       width="1.952347"
       height="5.761024"
       x="109.01138"
       y="47.098152"
       transform="translate(0,776.36218)" />
  </g>
</svg>
